<svg xmlns="http://www.w3.org/2000/svg" width="26" height="25.998" viewBox="0 0 26 25.998">
  <path id="cricket_icon" d="M-1998.567-1028.223l.468-.468,17.187-17.667.455-.468a13,13,0,0,1-.273,17.94A12.971,12.971,0,0,1-1990-1025,12.947,12.947,0,0,1-1998.567-1028.223Zm3.576-1.924-.911.923a.655.655,0,0,0,0,.922.638.638,0,0,0,.455.182.7.7,0,0,0,.468-.182l.911-.936a.64.64,0,0,0,0-.91.658.658,0,0,0-.467-.2A.624.624,0,0,0-1994.992-1030.146Zm2.73-2.783-.91.937a.639.639,0,0,0,.013.91.611.611,0,0,0,.455.195.611.611,0,0,0,.455-.195l.923-.936a.641.641,0,0,0-.013-.911.642.642,0,0,0-.456-.19A.68.68,0,0,0-1992.262-1032.929Zm2.743-2.782-.91.936a.639.639,0,0,0,0,.91.651.651,0,0,0,.455.195.658.658,0,0,0,.468-.195l.91-.922a.657.657,0,0,0-.013-.923.642.642,0,0,0-.455-.186A.642.642,0,0,0-1989.519-1035.711Zm2.73-2.769-.91.923a.654.654,0,0,0,.013.922.652.652,0,0,0,.455.182.613.613,0,0,0,.455-.2l.91-.923a.644.644,0,0,0,0-.923.661.661,0,0,0-.455-.183A.66.66,0,0,0-1986.789-1038.48Zm2.744-2.782-.91.922a.645.645,0,0,0,0,.923.675.675,0,0,0,.455.182.661.661,0,0,0,.468-.195l.91-.923a.655.655,0,0,0-.013-.923.632.632,0,0,0-.448-.183A.634.634,0,0,0-1984.045-1041.262Zm2.73-2.783-.911.923a.656.656,0,0,0,.014.923.6.6,0,0,0,.455.181.648.648,0,0,0,.455-.195l.91-.923a.638.638,0,0,0,0-.91.655.655,0,0,0-.466-.2A.624.624,0,0,0-1981.315-1044.044Zm-17.954-3.068a13.005,13.005,0,0,1,17.889-.624l-.469.48-17.2,17.655-.454.469A12.993,12.993,0,0,1-1999.269-1047.113Zm.571,13.325-.91.923a.656.656,0,0,0,0,.923.7.7,0,0,0,.455.181.657.657,0,0,0,.468-.2l.91-.923a.654.654,0,0,0-.013-.922.632.632,0,0,0-.449-.184A.635.635,0,0,0-1998.7-1033.787Zm2.731-2.782-.911.923a.654.654,0,0,0,.014.922.649.649,0,0,0,.454.182.612.612,0,0,0,.455-.2l.909-.923a.644.644,0,0,0,0-.923.659.659,0,0,0-.454-.183A.657.657,0,0,0-1995.967-1036.569Zm2.743-2.783-.91.923a.643.643,0,0,0,0,.923.694.694,0,0,0,.454.181.658.658,0,0,0,.468-.194l.911-.923a.656.656,0,0,0-.014-.923.632.632,0,0,0-.448-.184A.633.633,0,0,0-1993.224-1039.352Zm2.73-2.782-.91.923a.655.655,0,0,0,.013.923.6.6,0,0,0,.455.181.627.627,0,0,0,.454-.195l.911-.923a.64.64,0,0,0,0-.91.65.65,0,0,0-.462-.2A.651.651,0,0,0-1990.494-1042.134Zm2.743-2.783-.922.937a.639.639,0,0,0,.013.91.632.632,0,0,0,.455.195.662.662,0,0,0,.468-.195l.91-.936a.64.64,0,0,0-.013-.911.616.616,0,0,0-.449-.19A.655.655,0,0,0-1987.751-1044.916Zm2.731-2.782-.911.936a.653.653,0,0,0,0,.911.661.661,0,0,0,.468.195.654.654,0,0,0,.455-.195l.91-.923a.655.655,0,0,0,0-.923.675.675,0,0,0-.466-.185A.643.643,0,0,0-1985.02-1047.7Zm4.562.871h0Z" transform="translate(2003 1051)" fill="#122d5f"/>
</svg>
