<svg id="deposit_dhamaka" xmlns="http://www.w3.org/2000/svg" xmlns:xlink="http://www.w3.org/1999/xlink" width="280" height="70" viewBox="0 0 280 70">
  <defs>
    <linearGradient id="linear-gradient" x1="0.5" x2="0.5" y2="1" gradientUnits="objectBoundingBox">
      <stop offset="0" stop-color="#fadc00"/>
      <stop offset="1" stop-color="#e8cd07"/>
    </linearGradient>
    <filter id="Path_21380" x="180.794" y="32.998" width="74.606" height="15.1" filterUnits="userSpaceOnUse">
      <feOffset dx="2.51" dy="2.51" input="SourceAlpha"/>
      <feGaussianBlur result="blur"/>
      <feFlood flood-color="#22003a" flood-opacity="0.549"/>
      <feComposite operator="in" in2="blur"/>
      <feComposite in="SourceGraphic"/>
    </filter>
  </defs>
  <rect id="flat-design-sale-background_23-2149066483" width="280" height="70" rx="5" fill="url(#linear-gradient)"/>
  <g id="Group_15419" data-name="Group 15419" transform="translate(161.578 12.718)" opacity="0.58">
    <path id="Path_1" data-name="Path 1" d="M499.828,132.818a.4.4,0,0,0,.528.19.39.39,0,0,0,.1-.065q-.249-.311-.516-.6A.4.4,0,0,0,499.828,132.818Z" transform="translate(-478.505 -128.851)" fill="#c99f19"/>
    <path id="Path_2" data-name="Path 2" d="M505.809,143.406a.4.4,0,1,0-.19.529A.4.4,0,0,0,505.809,143.406Z" transform="translate(-482.368 -136.805)" fill="#c99f19"/>
    <path id="Path_3" data-name="Path 3" d="M510.353,154.927a.4.4,0,0,0,.439.22q-.055-.392-.137-.782a.4.4,0,0,0-.3.562Z" transform="translate(-486.23 -145.016)" fill="#c99f19"/>
    <path id="Path_4" data-name="Path 4" d="M485.135,125.845a.4.4,0,1,0-.19.529A.4.4,0,0,0,485.135,125.845Z" transform="translate(-467.194 -123.917)" fill="#c99f19"/>
    <path id="Path_5" data-name="Path 5" d="M490.4,137.016a.4.4,0,1,0-.19.529A.4.4,0,0,0,490.4,137.016Z" transform="translate(-471.057 -132.115)" fill="#c99f19"/>
    <path id="Path_6" data-name="Path 6" d="M495.66,148.187a.4.4,0,1,0-.19.529A.4.4,0,0,0,495.66,148.187Z" transform="translate(-474.919 -140.314)" fill="#c99f19"/>
    <path id="Path_7" data-name="Path 7" d="M500.923,159.358a.4.4,0,1,0-.19.529A.4.4,0,0,0,500.923,159.358Z" transform="translate(-478.782 -148.513)" fill="#c99f19"/>
    <path id="Path_8" data-name="Path 8" d="M506.186,170.529a.4.4,0,1,0-.19.529A.4.4,0,0,0,506.186,170.529Z" transform="translate(-482.644 -156.712)" fill="#c99f19"/>
    <path id="Path_9" data-name="Path 9" d="M469.723,119.455a.4.4,0,1,0-.19.529A.4.4,0,0,0,469.723,119.455Z" transform="translate(-455.883 -119.227)" fill="#c99f19"/>
    <path id="Path_10" data-name="Path 10" d="M474.986,130.626a.4.4,0,1,0-.19.529A.4.4,0,0,0,474.986,130.626Z" transform="translate(-459.746 -127.426)" fill="#c99f19"/>
    <path id="Path_11" data-name="Path 11" d="M480.249,141.8a.4.4,0,1,0-.19.529A.4.4,0,0,0,480.249,141.8Z" transform="translate(-463.608 -135.624)" fill="#c99f19"/>
    <path id="Path_12" data-name="Path 12" d="M485.511,152.968a.4.4,0,1,0-.19.529A.4.4,0,0,0,485.511,152.968Z" transform="translate(-467.47 -143.823)" fill="#c99f19"/>
    <path id="Path_13" data-name="Path 13" d="M490.774,164.139a.4.4,0,1,0-.19.529A.4.4,0,0,0,490.774,164.139Z" transform="translate(-471.333 -152.022)" fill="#c99f19"/>
    <path id="Path_14" data-name="Path 14" d="M496.037,175.31a.4.4,0,1,0-.19.529A.4.4,0,0,0,496.037,175.31Z" transform="translate(-475.196 -160.221)" fill="#c99f19"/>
    <path id="Path_15" data-name="Path 15" d="M500.581,186.82a.4.4,0,1,0,.19-.529A.4.4,0,0,0,500.581,186.82Z" transform="translate(-479.058 -168.419)" fill="#c99f19"/>
    <path id="Path_16" data-name="Path 16" d="M459.574,124.236a.4.4,0,1,0-.19.529A.4.4,0,0,0,459.574,124.236Z" transform="translate(-448.434 -122.736)" fill="#c99f19"/>
    <path id="Path_17" data-name="Path 17" d="M464.837,135.407a.4.4,0,1,0-.19.529A.4.4,0,0,0,464.837,135.407Z" transform="translate(-452.297 -130.934)" fill="#c99f19"/>
    <path id="Path_18" data-name="Path 18" d="M470.1,146.578a.4.4,0,1,0-.19.529A.4.4,0,0,0,470.1,146.578Z" transform="translate(-456.159 -139.133)" fill="#c99f19"/>
    <path id="Path_19" data-name="Path 19" d="M475.363,157.749a.4.4,0,1,0-.19.529A.4.4,0,0,0,475.363,157.749Z" transform="translate(-460.022 -147.332)" fill="#c99f19"/>
    <path id="Path_20" data-name="Path 20" d="M480.625,168.92a.4.4,0,1,0-.19.529A.4.4,0,0,0,480.625,168.92Z" transform="translate(-463.884 -155.531)" fill="#c99f19"/>
    <path id="Path_21" data-name="Path 21" d="M485.888,180.092a.4.4,0,1,0-.19.528A.4.4,0,0,0,485.888,180.092Z" transform="translate(-467.747 -163.73)" fill="#c99f19"/>
    <path id="Path_22" data-name="Path 22" d="M490.432,191.6a.4.4,0,1,0,.19-.529A.4.4,0,0,0,490.432,191.6Z" transform="translate(-471.609 -171.928)" fill="#c99f19"/>
    <path id="Path_23" data-name="Path 23" d="M449.426,129.017a.4.4,0,1,0-.19.529A.4.4,0,0,0,449.426,129.017Z" transform="translate(-440.986 -126.245)" fill="#c99f19"/>
    <path id="Path_24" data-name="Path 24" d="M454.688,140.188a.4.4,0,1,0-.19.529A.4.4,0,0,0,454.688,140.188Z" transform="translate(-444.849 -134.444)" fill="#c99f19"/>
    <path id="Path_25" data-name="Path 25" d="M459.951,151.359a.4.4,0,1,0-.19.529A.4.4,0,0,0,459.951,151.359Z" transform="translate(-448.711 -142.643)" fill="#c99f19"/>
    <path id="Path_26" data-name="Path 26" d="M465.214,162.53a.4.4,0,1,0-.19.529A.4.4,0,0,0,465.214,162.53Z" transform="translate(-452.573 -150.841)" fill="#c99f19"/>
    <path id="Path_27" data-name="Path 27" d="M470.476,173.7a.4.4,0,1,0-.19.529A.4.4,0,0,0,470.476,173.7Z" transform="translate(-456.436 -159.04)" fill="#c99f19"/>
    <path id="Path_28" data-name="Path 28" d="M475.739,184.873a.4.4,0,1,0-.19.529A.4.4,0,0,0,475.739,184.873Z" transform="translate(-460.298 -167.239)" fill="#c99f19"/>
    <path id="Path_29" data-name="Path 29" d="M480.283,196.382a.4.4,0,1,0,.19-.529A.4.4,0,0,0,480.283,196.382Z" transform="translate(-464.161 -175.437)" fill="#c99f19"/>
    <path id="Path_30" data-name="Path 30" d="M439.277,133.8a.4.4,0,1,0-.19.529A.4.4,0,0,0,439.277,133.8Z" transform="translate(-433.538 -129.754)" fill="#c99f19"/>
    <path id="Path_31" data-name="Path 31" d="M444.539,144.97a.4.4,0,1,0-.19.528A.4.4,0,0,0,444.539,144.97Z" transform="translate(-437.4 -137.953)" fill="#c99f19"/>
    <path id="Path_32" data-name="Path 32" d="M449.8,156.141a.4.4,0,1,0-.19.529A.4.4,0,0,0,449.8,156.141Z" transform="translate(-441.262 -146.151)" fill="#c99f19"/>
    <path id="Path_33" data-name="Path 33" d="M455.065,167.312a.4.4,0,1,0-.19.529A.4.4,0,0,0,455.065,167.312Z" transform="translate(-445.125 -154.35)" fill="#c99f19"/>
    <path id="Path_34" data-name="Path 34" d="M460.328,178.483a.4.4,0,1,0-.19.529A.4.4,0,0,0,460.328,178.483Z" transform="translate(-448.987 -162.549)" fill="#c99f19"/>
    <path id="Path_35" data-name="Path 35" d="M465.59,189.654a.4.4,0,1,0-.19.529A.4.4,0,0,0,465.59,189.654Z" transform="translate(-452.85 -170.748)" fill="#c99f19"/>
    <path id="Path_36" data-name="Path 36" d="M470.134,201.163a.4.4,0,1,0,.19-.528A.4.4,0,0,0,470.134,201.163Z" transform="translate(-456.712 -178.947)" fill="#c99f19"/>
    <path id="Path_37" data-name="Path 37" d="M429.128,138.58a.4.4,0,1,0-.19.528A.4.4,0,0,0,429.128,138.58Z" transform="translate(-426.089 -133.263)" fill="#c99f19"/>
    <path id="Path_38" data-name="Path 38" d="M434.39,149.751a.4.4,0,1,0-.19.529A.4.4,0,0,0,434.39,149.751Z" transform="translate(-429.951 -141.462)" fill="#c99f19"/>
    <path id="Path_39" data-name="Path 39" d="M439.653,160.922a.4.4,0,1,0-.19.529A.4.4,0,0,0,439.653,160.922Z" transform="translate(-433.814 -149.66)" fill="#c99f19"/>
    <path id="Path_40" data-name="Path 40" d="M444.916,172.093a.4.4,0,1,0-.19.529A.4.4,0,0,0,444.916,172.093Z" transform="translate(-437.676 -157.859)" fill="#c99f19"/>
    <path id="Path_41" data-name="Path 41" d="M450.179,183.264a.4.4,0,1,0-.19.529A.4.4,0,0,0,450.179,183.264Z" transform="translate(-441.539 -166.058)" fill="#c99f19"/>
    <path id="Path_42" data-name="Path 42" d="M455.441,194.435a.4.4,0,1,0-.19.529A.4.4,0,0,0,455.441,194.435Z" transform="translate(-445.401 -174.257)" fill="#c99f19"/>
    <path id="Path_43" data-name="Path 43" d="M459.985,205.945a.4.4,0,1,0,.19-.529A.4.4,0,0,0,459.985,205.945Z" transform="translate(-449.264 -182.455)" fill="#c99f19"/>
    <path id="Path_44" data-name="Path 44" d="M424.242,154.532a.4.4,0,1,0-.19.529A.4.4,0,0,0,424.242,154.532Z" transform="translate(-422.503 -144.971)" fill="#c99f19"/>
    <path id="Path_45" data-name="Path 45" d="M429.5,165.7a.4.4,0,1,0-.19.529A.4.4,0,0,0,429.5,165.7Z" transform="translate(-426.365 -153.17)" fill="#c99f19"/>
    <path id="Path_46" data-name="Path 46" d="M434.767,176.874a.4.4,0,1,0-.19.529A.4.4,0,0,0,434.767,176.874Z" transform="translate(-430.228 -161.368)" fill="#c99f19"/>
    <path id="Path_47" data-name="Path 47" d="M440.03,188.045a.4.4,0,1,0-.19.529A.4.4,0,0,0,440.03,188.045Z" transform="translate(-434.09 -169.567)" fill="#c99f19"/>
    <path id="Path_48" data-name="Path 48" d="M445.293,199.216a.4.4,0,1,0-.19.529A.4.4,0,0,0,445.293,199.216Z" transform="translate(-437.953 -177.766)" fill="#c99f19"/>
    <path id="Path_49" data-name="Path 49" d="M420.233,170.485a.4.4,0,0,0-.439-.219q.056.392.137.782a.4.4,0,0,0,.112-.034A.4.4,0,0,0,420.233,170.485Z" transform="translate(-419.794 -156.68)" fill="#c99f19"/>
    <path id="Path_50" data-name="Path 50" d="M424.618,181.655a.4.4,0,1,0-.19.529A.4.4,0,0,0,424.618,181.655Z" transform="translate(-422.779 -164.877)" fill="#c99f19"/>
    <path id="Path_51" data-name="Path 51" d="M430.242,192.826a.4.4,0,0,0-.529-.19.4.4,0,0,0-.1.065q.249.311.516.6A.4.4,0,0,0,430.242,192.826Z" transform="translate(-427.003 -173.076)" fill="#c99f19"/>
  </g>
  <path id="Path_21382" data-name="Path 21382" d="M10.836-3.5h-.7V-.7a6.923,6.923,0,0,1-1.8.623A11.349,11.349,0,0,1,5.782.2a5.793,5.793,0,0,1-4.1-1.379A5.557,5.557,0,0,1,.2-5.446a5.554,5.554,0,0,1,1.477-4.3,6.056,6.056,0,0,1,4.221-1.344,10.616,10.616,0,0,1,2.492.28,6.551,6.551,0,0,1,1.75.63v3.346h-3.5V-7.49a1.208,1.208,0,0,0-.245-.847A1.027,1.027,0,0,0,5.614-8.6a1.027,1.027,0,0,0-.777.259,1.208,1.208,0,0,0-.245.847V-3.4a1.208,1.208,0,0,0,.245.847,1.027,1.027,0,0,0,.777.259,1.027,1.027,0,0,0,.777-.259A1.208,1.208,0,0,0,6.636-3.4v-.1H5.88V-5.586h4.956ZM11.228,0V-2.3h.7V-8.6h-.7v-2.3h9.45v4.228H17.542V-8.6H15.848v2.212H17.08v1.6H15.848V-2.3h1.694V-4.508h3.136V0ZM31.654-7.5H29.246V-8.6h-.9v6.3h.98V0H23.45V-2.3h.98V-8.6h-.9V-7.5H21.126v-3.388H31.654ZM36.666,0V-2.3H38.01V-8.6H36.246v-1.582l3.108-.714h2.352v8.6h1.176V0Zm12.39-7.2a3.044,3.044,0,0,1,2.394.924,3.623,3.623,0,0,1,.826,2.506,3.968,3.968,0,0,1-.539,2.086,3.53,3.53,0,0,1-1.6,1.386A6.128,6.128,0,0,1,47.558.2a9.245,9.245,0,0,1-2.044-.231A10.884,10.884,0,0,1,43.694-.6V-3.584A7.885,7.885,0,0,0,47-2.73a1.765,1.765,0,0,0,1.148-.315,1.213,1.213,0,0,0,.378-.987A1.2,1.2,0,0,0,48.3-4.8a.86.86,0,0,0-.714-.28.932.932,0,0,0-.609.189,1.3,1.3,0,0,0-.371.539h-2.94l.6-6.538h7.448v2.716H47.068l-.126,1.442A4.5,4.5,0,0,1,49.056-7.2ZM55.174-5.4q-2.282,0-2.282-2.8a3.236,3.236,0,0,1,.588-2.156,2.13,2.13,0,0,1,1.694-.672q2.3,0,2.3,2.828a3.4,3.4,0,0,1-.546,2.079A2.054,2.054,0,0,1,55.174-5.4Zm0-1.218q.406,0,.406-.518V-9.31q0-.5-.406-.5t-.392.5v2.17Q54.782-6.622,55.174-6.622ZM54.7,0V-.448l6.51-10.444h1.428v.448L56.14,0Zm7.448.14q-2.282,0-2.282-2.8a3.236,3.236,0,0,1,.588-2.156,2.13,2.13,0,0,1,1.694-.672q2.3,0,2.3,2.828A3.4,3.4,0,0,1,63.9-.581,2.054,2.054,0,0,1,62.146.14Zm0-1.218q.406,0,.406-.518v-2.17q0-.5-.406-.5t-.392.5V-1.6Q61.754-1.078,62.146-1.078Z" transform="translate(12 24)" fill="#cc2828"/>
  <path id="Path_21383" data-name="Path 21383" d="M.28,0V-2.3h.7V-8.6H.28v-2.3H9.73v4.228H6.594V-8.6H4.9v2.212H6.132v1.6H4.9V-2.3H6.594V-4.508H9.73V0ZM20.4-2.3h.588V0H15.694V-2.3h.574l-.812-1.148h-.14L14.5-2.3h.574V0h-4.9V-2.3h.728L13.594-5.32,10.794-8.6h-.588v-2.3h5.25v2.3h-.532l.77,1.148h.14L16.6-8.6h-.532v-2.3H20.93v2.3H20.2L17.556-5.614ZM31.906-7.5H29.5V-8.6h-.9v6.3h.98V0H23.7V-2.3h.98V-8.6h-.9V-7.5H21.378v-3.388H31.906ZM32.382-2.3h.7V-8.6h-.7v-2.3h6.426a4.413,4.413,0,0,1,2.758.742,2.866,2.866,0,0,1,.952,2.408,3.315,3.315,0,0,1-.378,1.624,2.025,2.025,0,0,1-1.078.952l.014.14A1.473,1.473,0,0,1,42.42-3.374V-2.3h.658V0H38.64V-3.29a1.69,1.69,0,0,0-.161-.826.81.81,0,0,0-.5-.378,3.728,3.728,0,0,0-.973-.1v2.3h.924V0H32.382Zm5.376-4a.8.8,0,0,0,.609-.217.968.968,0,0,0,.2-.679v-.5a.968.968,0,0,0-.2-.679.8.8,0,0,0-.609-.217H37v2.3Zm16.1,4h.56V0H48.93V-2.3h.84l-.224-1.12h-1.9L47.418-2.3h.84V0H43.47V-2.3h.56l2.366-8.6h5.1ZM47.95-4.9h1.288l-.574-2.786h-.14ZM59.066-2.3h.7V-8.6h-.7v-2.3h6.426a4.413,4.413,0,0,1,2.758.742A2.866,2.866,0,0,1,69.2-7.742a3.315,3.315,0,0,1-.378,1.624,2.025,2.025,0,0,1-1.078.952l.014.14A1.473,1.473,0,0,1,69.1-3.374V-2.3h.658V0H65.324V-3.29a1.69,1.69,0,0,0-.161-.826.81.81,0,0,0-.5-.378,3.728,3.728,0,0,0-.973-.1v2.3h.924V0H59.066Zm5.376-4a.8.8,0,0,0,.609-.217.968.968,0,0,0,.2-.679v-.5a.968.968,0,0,0-.2-.679.8.8,0,0,0-.609-.217h-.756v2.3ZM70.266,0V-2.3h.7V-8.6h-.7v-2.3h9.45v4.228H76.58V-8.6H74.886v2.212h1.232v1.6H74.886V-2.3H76.58V-4.508h3.136V0ZM90.524-2.3h.56V0H85.6V-2.3h.84l-.224-1.12h-1.9L84.084-2.3h.84V0H80.136V-2.3h.56l2.366-8.6h5.1ZM84.616-4.9H85.9L85.33-7.686h-.14ZM91.532,0V-2.3h.7V-8.6h-.7v-2.3H97.44v2.3H96.152v6.3h1.26V-3.584H100.2V0Zm18.774.2a5.746,5.746,0,0,1-4.081-1.344,5.65,5.65,0,0,1-1.435-4.3q0-5.642,5.488-5.642a9.068,9.068,0,0,1,2.471.322,5.805,5.805,0,0,1,1.7.714v3.5h-3.36V-7.56a1.11,1.11,0,0,0-.238-.784.937.937,0,0,0-.714-.252.937.937,0,0,0-.714.252,1.11,1.11,0,0,0-.238.784v4.228a1.11,1.11,0,0,0,.238.784.937.937,0,0,0,.714.252.937.937,0,0,0,.714-.252,1.11,1.11,0,0,0,.238-.784V-4.466h3.36V-.84a6.04,6.04,0,0,1-1.7.714A8.863,8.863,0,0,1,110.306.2ZM125.258-2.3h.56V0H120.33V-2.3h.84l-.224-1.12h-1.9l-.224,1.12h.84V0H114.87V-2.3h.56l2.366-8.6h5.1ZM119.35-4.9h1.288l-.574-2.786h-.14ZM130.606.2a13.4,13.4,0,0,1-2.541-.231,8.505,8.505,0,0,1-1.841-.525V-3.332h3.08a.863.863,0,0,0,.2.63,1,1,0,0,0,.714.2,1.113,1.113,0,0,0,.623-.133.456.456,0,0,0,.189-.4.5.5,0,0,0-.182-.385,2.115,2.115,0,0,0-.63-.329l-1.2-.42a5.4,5.4,0,0,1-2.233-1.386,3.218,3.218,0,0,1-.679-2.156,3.017,3.017,0,0,1,1.085-2.513,5.9,5.9,0,0,1,3.619-.861,10.246,10.246,0,0,1,2.289.245,5.753,5.753,0,0,1,1.729.651v2.506h-2.8q0-.7-.868-.7a1.227,1.227,0,0,0-.6.105.4.4,0,0,0-.175.371.437.437,0,0,0,.2.378,2.808,2.808,0,0,0,.665.294l1.218.42a4.773,4.773,0,0,1,2.163,1.309A3.157,3.157,0,0,1,135.31-3.4a3.166,3.166,0,0,1-1.2,2.688A5.728,5.728,0,0,1,130.606.2ZM146.9-8.6h-.7v6.3h.7V0H141.61V-2.3h.672v-2.31h-1.96V-2.3h.672V0H135.7V-2.3h.7V-8.6h-.7v-2.3h5.292v2.3h-.672v2.128h1.96V-8.6h-.672v-2.3H146.9Z" transform="translate(12 42)" fill="#122d5f"/>
  <path id="Path_21384" data-name="Path 21384" d="M3.96.14A3.9,3.9,0,0,1,1.135-.82a4.11,4.11,0,0,1-1-3.07,4.11,4.11,0,0,1,1-3.07A3.9,3.9,0,0,1,3.96-7.92a3.9,3.9,0,0,1,2.825.96A4.11,4.11,0,0,1,7.78-3.89,4.11,4.11,0,0,1,6.785-.82,3.9,3.9,0,0,1,3.96.14Zm0-1.78a.669.669,0,0,0,.51-.18.793.793,0,0,0,.17-.56V-5.4a.793.793,0,0,0-.17-.56.669.669,0,0,0-.51-.18.669.669,0,0,0-.51.18.793.793,0,0,0-.17.56v3.02a.79.79,0,0,0,.17.565A.681.681,0,0,0,3.96-1.64Zm9.92-6.14h3.28v1.64h-.5V0H13.85L10.92-4.51v2.87h.48V0H8.12V-1.64h.5v-4.5h-.5V-7.78h3.61l2.63,4.01V-6.14h-.48ZM20.54,0V-1.64h.5v-4.5h-.5V-7.78h5.98v2.59H24.75v-.95h-.91v1.66h1.51v1.14H23.84v1.7h1.31V0Zm6.32,0V-1.64h.5v-4.5h-.5V-7.78h3.8v1.64h-.5v4.5h.5V0Zm4.2-1.64h.5v-4.5h-.5V-7.78h4.59a3.152,3.152,0,0,1,1.97.53,2.047,2.047,0,0,1,.68,1.72,2.368,2.368,0,0,1-.27,1.16,1.446,1.446,0,0,1-.77.68l.01.1a1.052,1.052,0,0,1,.96,1.18v.77h.47V0H35.53V-2.35a1.207,1.207,0,0,0-.115-.59.579.579,0,0,0-.36-.27,2.663,2.663,0,0,0-.695-.07v1.64h.66V0H31.06ZM34.9-4.5a.568.568,0,0,0,.435-.155.692.692,0,0,0,.145-.485V-5.5a.692.692,0,0,0-.145-.485A.568.568,0,0,0,34.9-6.14h-.54V-4.5ZM42.16.14a9.57,9.57,0,0,1-1.815-.165A6.075,6.075,0,0,1,39.03-.4V-2.38h2.2a.617.617,0,0,0,.14.45.718.718,0,0,0,.51.14.8.8,0,0,0,.445-.095.325.325,0,0,0,.135-.285.355.355,0,0,0-.13-.275,1.51,1.51,0,0,0-.45-.235l-.86-.3a3.858,3.858,0,0,1-1.6-.99,2.3,2.3,0,0,1-.485-1.54,2.155,2.155,0,0,1,.775-1.8A4.212,4.212,0,0,1,42.3-7.92a7.319,7.319,0,0,1,1.635.175,4.11,4.11,0,0,1,1.235.465v1.79h-2q0-.5-.62-.5a.877.877,0,0,0-.425.075A.283.283,0,0,0,42-5.65a.312.312,0,0,0,.145.27,2.006,2.006,0,0,0,.475.21l.87.3a3.409,3.409,0,0,1,1.545.935A2.255,2.255,0,0,1,45.52-2.43a2.262,2.262,0,0,1-.855,1.92A4.091,4.091,0,0,1,42.16.14Zm11.1-5.5H51.54v-.78H50.9v4.5h.7V0H47.4V-1.64h.7v-4.5h-.64v.78H45.74V-7.78h7.52Zm10.8,0H62.34v-.78H61.7v4.5h.7V0H58.2V-1.64h.7v-4.5h-.64v.78H56.54V-7.78h7.52ZM64.4,0V-1.64h.5v-4.5h-.5V-7.78h3.8v1.64h-.5v4.5h.5V0ZM79.63-6.14h-.5v4.5h.5V0H75.85V-1.64h.48v-3.5L74.63,0H73.15L71.4-5.09v3.45h.48V0H68.6V-1.64h.5v-4.5h-.5V-7.78h4.58l1.04,3.12,1-3.12h4.41ZM80.03,0V-1.64h.5v-4.5h-.5V-7.78h6.75v3.02H84.54V-6.14H83.33v1.58h.88v1.14h-.88v1.78h1.21V-3.22h2.24V0ZM90.16-1.64h.5V-6.13h-.5V-7.78h4.06a3.746,3.746,0,0,1,2.655.915A3.9,3.9,0,0,1,97.86-3.89a3.9,3.9,0,0,1-.985,2.975A3.746,3.746,0,0,1,94.22,0H90.16Zm3.88,0a.669.669,0,0,0,.51-.18.793.793,0,0,0,.17-.56V-5.4q0-.74-.68-.74h-.58v4.5ZM98.2,0V-1.64h.5v-4.5h-.5V-7.78h6.75v3.02h-2.24V-6.14H101.5v1.58h.88v1.14h-.88v1.78h1.21V-3.22h2.24V0Zm7.13-1.64h.5v-4.5h-.5V-7.78h4.39a3.049,3.049,0,0,1,1.97.555,2.186,2.186,0,0,1,.68,1.8,2.186,2.186,0,0,1-.68,1.8,3.049,3.049,0,0,1-1.97.555h-1.09v1.44h.96V0h-4.26Zm3.64-2.86q.58,0,.58-.64V-5.5a.692.692,0,0,0-.145-.485.568.568,0,0,0-.435-.155h-.34V-4.5Zm7.5,4.64a3.9,3.9,0,0,1-2.825-.96,4.11,4.11,0,0,1-1-3.07,4.11,4.11,0,0,1,1-3.07,3.9,3.9,0,0,1,2.825-.96,3.9,3.9,0,0,1,2.825.96,4.11,4.11,0,0,1,.995,3.07,4.11,4.11,0,0,1-.995,3.07A3.9,3.9,0,0,1,116.47.14Zm0-1.78a.669.669,0,0,0,.51-.18.793.793,0,0,0,.17-.56V-5.4a.793.793,0,0,0-.17-.56.669.669,0,0,0-.51-.18.669.669,0,0,0-.51.18.793.793,0,0,0-.17.56v3.02a.79.79,0,0,0,.17.565A.681.681,0,0,0,116.47-1.64ZM123.73.14a9.57,9.57,0,0,1-1.815-.165A6.075,6.075,0,0,1,120.6-.4V-2.38h2.2a.617.617,0,0,0,.14.45.718.718,0,0,0,.51.14.8.8,0,0,0,.445-.095.325.325,0,0,0,.135-.285.355.355,0,0,0-.13-.275,1.51,1.51,0,0,0-.45-.235l-.86-.3a3.858,3.858,0,0,1-1.6-.99,2.3,2.3,0,0,1-.485-1.54,2.155,2.155,0,0,1,.775-1.8,4.212,4.212,0,0,1,2.585-.615,7.319,7.319,0,0,1,1.635.175,4.11,4.11,0,0,1,1.235.465v1.79h-2q0-.5-.62-.5a.877.877,0,0,0-.425.075.283.283,0,0,0-.125.265.312.312,0,0,0,.145.27,2.005,2.005,0,0,0,.475.21l.87.3a3.409,3.409,0,0,1,1.545.935,2.255,2.255,0,0,1,.485,1.505,2.262,2.262,0,0,1-.855,1.92A4.091,4.091,0,0,1,123.73.14ZM127.37,0V-1.64h.5v-4.5h-.5V-7.78h3.8v1.64h-.5v4.5h.5V0Zm11.66-5.36h-1.72v-.78h-.64v4.5h.7V0h-4.2V-1.64h.7v-4.5h-.64v.78h-1.72V-7.78h7.52Zm1.59,1.27v-.15l.18-.94-.75.6-.12.07-.6-1,.11-.09,1-.33-1-.33-.11-.07.6-1.03.12.07.75.62-.18-.94v-.17h1.2v.17l-.18.94.74-.62.11-.07.61,1.03-.12.07-1.01.33,1.01.33.12.09-.61,1-.11-.07-.74-.6.18.94v.15Z" transform="translate(12 57)" fill="#122d5f"/>
  <g id="Group_15417" data-name="Group 15417" transform="translate(168.341 8.718)">
    <path id="Path_103" data-name="Path 103" d="M276.879,233.328h-82.4l-5.518-28.957H282.4Z" transform="translate(-186.803 -188.516)" fill="#122d5f"/>
    <path id="Path_104" data-name="Path 104" d="M280.074,235.842H200.327l-5.34-26.448h90.428Z" transform="translate(-191.327 -192.285)" fill="none" stroke="#fff" stroke-width="1"/>
    <g transform="matrix(1, 0, 0, 1, -168.34, -8.72)" filter="url(#Path_21380)">
      <path id="Path_21380-2" data-name="Path 21380" d="M.24.6h.6V-6.666H.24v-2.67H5.112A3.864,3.864,0,0,1,8.3-7.855Q9.48-6.375,9.48-3.041T8.3,1.773A3.864,3.864,0,0,1,5.112,3.254H.24ZM4.9.6A.7.7,0,0,0,5.508.309a1.6,1.6,0,0,0,.2-.906V-5.485q0-1.2-.816-1.2H4.2V.6ZM19.488-6.682h-.6V.6h.6V3.254H14.952V.6h.576V-2.07h-1.68V.6h.576V3.254H9.888V.6h.6V-6.682h-.6V-9.336h4.536v2.654h-.576v2.46h1.68v-2.46h-.576V-9.336h4.536ZM28.776.6h.48V3.254h-4.7V.6h.72L25.08-.694H23.448L23.256.6h.72V3.254h-4.1V.6h.48L22.38-9.336h4.368ZM23.712-2.41h1.1l-.492-3.22H24.2ZM42.876-6.682h-.6V.6h.6V3.254H38.34V.6h.576V-5.064l-2.04,8.318H35.1L33-4.983V.6h.576V3.254H29.64V.6h.6V-6.682h-.6V-9.336h5.5l1.248,5.049,1.2-5.049h5.292ZM52.164.6h.48V3.254h-4.7V.6h.72L48.468-.694H46.836L46.644.6h.72V3.254h-4.1V.6h.48l2.028-9.936h4.368ZM47.1-2.41h1.1l-.492-3.22h-.12ZM62.016.6h.6V3.254H59.34l-1.8-5.017-.552.615V.6h.576V3.254H53.028V.6h.6V-6.682h-.6V-9.336h4.536v2.654h-.576v2.136l1.86-2.136h-.756V-9.336h4.464v2.654h-.6l-2,2.233Zm9.84,0h.48V3.254h-4.7V.6h.72L68.16-.694H66.528L66.336.6h.72V3.254h-4.1V.6h.48L65.46-9.336h4.368ZM66.792-2.41h1.1L67.4-5.63h-.12Z" transform="translate(180.55 42.33)" fill="#fff"/>
    </g>
    <path id="Path_105" data-name="Path 105" d="M322.829,179.533H267.27l2.285-12.232h50.989Z" transform="translate(-245.557 -160.705)" fill="#3d214f" opacity="0.68" style="mix-blend-mode: multiply;isolation: isolate"/>
    <path id="Path_106" data-name="Path 106" d="M322.829,176.278H267.27l2.285-12.232h50.989Z" transform="translate(-245.557 -158.263)" fill="#cc2828"/>
    <path id="Path_107" data-name="Path 107" d="M324.925,177.578H271.456l2.045-10.936H322.88Z" transform="translate(-248.698 -160.211)" fill="none" stroke="#fff" stroke-width="1"/>
    <path id="Path_21381" data-name="Path 21381" d="M2.542-6.395H.45v5.021H2.542A2.451,2.451,0,0,0,5.152-3.9,2.421,2.421,0,0,0,2.542-6.395ZM2.024-2.778V-5.019H2.4A1.046,1.046,0,0,1,3.556-3.9,1.046,1.046,0,0,1,2.4-2.778Zm7.61-3.617H6.287v5.021H9.634V-2.629H7.861v-.709h1.56V-4.523H7.861V-5.14H9.634Zm2.737,2.184v-.922h.447c.355,0,.489.184.489.461s-.135.461-.489.461ZM14.9-4.672A1.673,1.673,0,0,0,13-6.395H10.8v5.021h1.574v-1.6H13A1.7,1.7,0,0,0,14.9-4.672Zm6.085.766A2.513,2.513,0,0,0,18.414-6.48a2.529,2.529,0,0,0-2.589,2.574,2.535,2.535,0,0,0,2.589,2.581A2.527,2.527,0,0,0,20.988-3.906Zm-3.56,0c0-.681.34-1.121.986-1.121s.979.44.979,1.121-.347,1.113-.979,1.113S17.428-3.239,17.428-3.906ZM26-2.927C26-4.473,23.669-4.367,23.669-5a.225.225,0,0,1,.227-.255c.17,0,.333.092.348.4h1.695C25.9-5.9,25.115-6.48,23.9-6.48c-1.071,0-1.922.525-1.922,1.532-.028,1.716,2.34,1.468,2.347,2.149,0,.177-.149.248-.3.248s-.355-.064-.383-.433H21.967c.071,1.128.972,1.659,2.12,1.659C25.3-1.324,26-2.005,26-2.927Zm1.121,1.553H28.7V-6.395H27.122ZM29.69-5.147h1.319v3.773h1.574V-5.147h1.333V-6.395H29.69Z" transform="translate(31.317 15.925)" fill="#fff"/>
    <g id="Group_4" data-name="Group 4" transform="translate(0 14.306)">
      <line id="Line_1" data-name="Line 1" x1="2.358" transform="translate(80.388 32.219)" fill="none" stroke="#4d1f64" stroke-width="1"/>
      <path id="Path_111" data-name="Path 111" d="M527.7,248.773l-3.731,19.581H515.89" transform="translate(-432.083 -236.135)" fill="none" stroke="#4d1f64" stroke-width="1"/>
      <line id="Line_2" data-name="Line 2" x1="1.055" y2="5.537" transform="translate(96.347 3.261)" fill="none" stroke="#4d1f64" stroke-width="1"/>
      <line id="Line_3" data-name="Line 3" x2="3.138" transform="translate(14.557 0)" fill="none" stroke="#4d1f64" stroke-width="1"/>
      <path id="Path_112" data-name="Path 112" d="M183.466,214.609l-3.132-16.437h12.41" transform="translate(-180.334 -198.172)" fill="none" stroke="#4d1f64" stroke-width="1"/>
      <line id="Line_4" data-name="Line 4" x1="0.632" y1="3.319" transform="translate(3.797 19.926)" fill="none" stroke="#4d1f64" stroke-width="1"/>
    </g>
    <g id="Group_5" data-name="Group 5" transform="translate(15.716 6.92)">
      <path id="Path_113" data-name="Path 113" d="M524.164,179.625a1.517,1.517,0,1,1-1.517-1.517A1.517,1.517,0,0,1,524.164,179.625Z" transform="translate(-451.729 -175.733)" fill="#4d1f64"/>
      <path id="Path_114" data-name="Path 114" d="M542.26,169.127a.528.528,0,1,1-.528-.528A.528.528,0,0,1,542.26,169.127Z" transform="translate(-466.79 -168.599)" fill="#4d1f64"/>
      <circle id="Ellipse_1" data-name="Ellipse 1" cx="0.924" cy="0.924" r="0.924" transform="translate(74.942 3.694)" fill="#4d1f64"/>
      <path id="Path_115" data-name="Path 115" d="M260.291,336.655a1.122,1.122,0,1,1-1.121-1.121A1.121,1.121,0,0,1,260.291,336.655Z" transform="translate(-254.354 -293.841)" fill="#4d1f64"/>
      <path id="Path_116" data-name="Path 116" d="M244.312,336.59a.528.528,0,1,1-.528-.528A.528.528,0,0,1,244.312,336.59Z" transform="translate(-243.257 -294.237)" fill="#4d1f64"/>
      <path id="Path_117" data-name="Path 117" d="M250.65,354.814a1.319,1.319,0,1,1-1.319-1.319A1.319,1.319,0,0,1,250.65,354.814Z" transform="translate(-246.824 -307.316)" fill="#4d1f64"/>
    </g>
    <path id="Path_118" data-name="Path 118" d="M223.9,148.722l7.523,8.2-3.231-7.751Z" transform="translate(-213.016 -146.767)" fill="#4d1f64"/>
    <path id="Path_119" data-name="Path 119" d="M254.321,147.614s.846,8.536.822,8.243.789-7.472.789-7.472Z" transform="translate(-235.842 -145.935)" fill="#9a224f"/>
    <path id="Path_120" data-name="Path 120" d="M230.054,175.4l-7.225-3.307.311,3.228Z" transform="translate(-212.216 -164.297)" fill="#9a224f"/>
    <path id="Path_121" data-name="Path 121" d="M471.126,332.91l2.939,10.467,2.079-3.083Z" transform="translate(-398.499 -284.953)" fill="#9a224f"/>
    <path id="Path_122" data-name="Path 122" d="M474,330.327l4.517,4.23.359-2.007Z" transform="translate(-400.652 -283.015)" fill="#4d1f64"/>
    <path id="Path_123" data-name="Path 123" d="M297.078,351.534l33.277,3.871,1.013-3.871Z" transform="translate(-266.92 -307.251)" fill="#081c40"/>
    <path id="Path_125" data-name="Path 125" d="M377.088,360.738l-17.72,3.256v-5.351Z" transform="translate(-313.653 -312.585)" fill="#122d5f"/>
    <g id="Group_6" data-name="Group 6" transform="translate(4.416)">
      <path id="Path_126" data-name="Path 126" d="M527.547,165.51a.651.651,0,1,1-.651-.651A.651.651,0,0,1,527.547,165.51Z" transform="translate(-444.268 -158.873)" fill="#9a224f"/>
      <path id="Path_127" data-name="Path 127" d="M577.3,182.051a1.041,1.041,0,1,1-1.041-1.041A1.041,1.041,0,0,1,577.3,182.051Z" transform="translate(-481.01 -170.991)" fill="#9a224f"/>
      <path id="Path_128" data-name="Path 128" d="M264.7,352.875a.976.976,0,1,0,.976-.976A.976.976,0,0,0,264.7,352.875Z" transform="translate(-248.046 -299.199)" fill="#9a224f"/>
      <circle id="Ellipse_2" data-name="Ellipse 2" cx="2.017" cy="2.017" r="2.017" transform="translate(0.39 48.481)" fill="#9a224f"/>
      <path id="Path_129" data-name="Path 129" d="M210.386,337.506a.716.716,0,1,1-.716-.716A.716.716,0,0,1,210.386,337.506Z" transform="translate(-206.222 -287.864)" fill="#9a224f"/>
      <path id="Path_130" data-name="Path 130" d="M206.219,162.709a.455.455,0,1,1-.456-.455A.456.456,0,0,1,206.219,162.709Z" transform="translate(-203.486 -156.919)" fill="#9a224f"/>
      <path id="Path_131" data-name="Path 131" d="M200.616,142.194a1.3,1.3,0,1,1-1.3-1.3A1.3,1.3,0,0,1,200.616,142.194Z" transform="translate(-198.014 -140.893)" fill="#9a224f"/>
      <circle id="Ellipse_3" data-name="Ellipse 3" cx="0.52" cy="0.52" r="0.52" transform="translate(78.725 54.001)" fill="#9a224f"/>
      <circle id="Ellipse_4" data-name="Ellipse 4" cx="1.822" cy="1.822" r="1.822" transform="translate(79.792 52.44) rotate(-45)" fill="#9a224f"/>
    </g>
  </g>
</svg>
