<svg xmlns="http://www.w3.org/2000/svg" width="29.386" height="28.987" viewBox="0 0 29.386 28.987">
  <path id="football_icon" d="M107.454,54.651a11.285,11.285,0,0,0,1.581.669c5.169,1.294,9.832.894,13.915-2.479a14.475,14.475,0,0,0,4.9-13.767,14.854,14.854,0,0,0-1.612-4.3,17.213,17.213,0,0,0-1.638-2.261,14.967,14.967,0,0,0-2.944-2.467,13.888,13.888,0,0,0-8.361-2,15.1,15.1,0,0,0-9.981,5.336,14.48,14.48,0,0,0-3.157,7.85,12.564,12.564,0,0,0-.031,1.866,12.1,12.1,0,0,0,.584,3.341,12.938,12.938,0,0,0,2.143,4.3,12.184,12.184,0,0,0,4.6,3.907Zm-1.436-1.459a4.175,4.175,0,0,1-.666-.46,12.048,12.048,0,0,1-2.74-3.347s.317-2,.512-2.976c1.135.084,2.3.329,3.344.472.209.027.4.054.546.076l.171.029.027.006a3.989,3.989,0,0,1,.421.39c.209.214.469.5.753.816.569.641,1.24,1.44,1.821,2.181l.529.674a28.09,28.09,0,0,0-.331,2.851c-1.379-.193-2.531-.407-3.9-.561h0a2.434,2.434,0,0,1-.492-.149Zm4.893.79h0Zm.006-.036a9.771,9.771,0,0,1,.338-2.753.4.4,0,0,1,.225-.256,6.23,6.23,0,0,1,.653-.3c.314-.131.705-.285,1.124-.44.838-.31,1.8-.637,2.529-.85l.734-.213,4.361,1.6s-.4,2.125-.708,3.2c-.048.14-.063.154-.117.2a9.587,9.587,0,0,1-4.8,1.451,33.572,33.572,0,0,1-3.376-1.149h0a5.8,5.8,0,0,1-.965-.487Zm-7.891-8.11-1.322-5.161s.616-.936,1.5-2.276c.371-.563.971-1.471,1.391-2.1l.184.014c1.319.1,2.518.207,2.953.265.145.019.3.044.425.067s.239.05.263.058c.039.013.059.021.067.024s0,0,.005,0,0,0,.005.014.007.023.012.041c.009.036.02.089.032.16h0c.419,1.842.81,3.308,1.266,5.042l-.845,1.442c-.455.777-.867,1.466-1.187,1.989s-.559.894-.63.985a.3.3,0,0,1-.033.038c-.005,0-.006,0-.02.008a.88.88,0,0,1-.209,0h0c-1.322-.206-3.856-.613-3.856-.613Zm-2.29-5.238c0-.013,0-.024.007-.04.022-.121.06-.305.092-.457.077-.361.134-.726.244-1.074a18.965,18.965,0,0,1,1.524-3.757,14.931,14.931,0,0,1,1.913-2.5,5.583,5.583,0,0,1,.606-.61.385.385,0,0,1,.3-.092h.011l-.009.019c-.075.151-.183.36-.3.588a5.577,5.577,0,0,0-.628,1.5c-.09.336-.168.693-.22,1a3.191,3.191,0,0,0-.066.707l0,0V35.9h0a.161.161,0,0,1-.018.091c-.971,1.523-2.01,3-2.96,4.538-.159.032-.335.053-.486.072Zm15.939,8.044a39.428,39.428,0,0,0-.609-5.085l.021-.024c1.395-1.344,4.012-4.1,4.012-4.1l.284.058a15.3,15.3,0,0,1,2.157.622c.457.162,1.1.421,1.409.565l.5.232c.148,1.9.488,5.227.488,5.227a24.433,24.433,0,0,1-3.891,4.08Zm-6.421-6.857s-.97-3.593-1.275-5.093l-.017-.131.76-.764c.509-.511,1.266-1.245,1.908-1.855.321-.305.613-.58.83-.78.112-.106.222-.2.336-.3l5.293,1.232a36.243,36.243,0,0,1,1.586,5.08s-2.09,2.384-3.325,3.5c-.314.281-.568.536-.568.536-1.209-.151-3.619-.788-3.619-.788a17.835,17.835,0,0,1-1.909-.633Zm15.253,4.451c-.265-1.726-.4-3.725-.6-5.433l.214-1.215c.116-.658.25-1.377.364-1.963s.214-1.056.244-1.158l.012-.043a5.44,5.44,0,0,1,.715-.108l.243.7h0a13.726,13.726,0,0,1,.45,8.085c-.144.582-.3,1.091-.467,1.634-.023.071-.035.1-.047.13-.386-.207-.79-.412-1.126-.625ZM106.057,31.44c.26-.2.576-.437.832-.616a9.425,9.425,0,0,1,3.1-1.483c.372-.122.822-.258,1.016-.309l-.07.12-.237.409-.537.18c-.719.242-2.428.962-3.531,1.487a2.551,2.551,0,0,1-.569.213Zm6.676.889-.294-.547c-.21-.391-.455-.82-.669-1.179a7.844,7.844,0,0,0-.5-.766l-.061-.074.158-.293a2.247,2.247,0,0,1,.4-.632,1.559,1.559,0,0,1,.635-.162,12.794,12.794,0,0,1,6.673.708c.873.345,2.411,1.119,2.411,1.119l.15,1.674a24.738,24.738,0,0,1-2.979,1.4,1.375,1.375,0,0,1-.276.058s-3.812-.959-5.657-1.3Zm12.974,3.6c-1.154-1.344-3.58-3.64-3.58-3.64h0l0,0s-.043-.883-.063-1.323c0,0,.076.057.148.117h0a11.965,11.965,0,0,1,3.9,4.6h0c.029.049.053.1.076.15-.157.047-.484.1-.484.1Z" transform="translate(-99.287 -27.494)" fill="#122d5f" stroke="#122d5f" stroke-width="1"/>
</svg>
