<svg xmlns="http://www.w3.org/2000/svg" width="26.605" height="24.604" viewBox="0 0 26.605 24.604">
  <g id="kabaddi" transform="translate(-283.645 -17.325)">
    <path id="kabaddi-2" data-name="kabaddi" d="M27.711,13.125H25.4V9.366l-2.08-.774,1.04,4.865,1.155,5.749,1.04,4.865H24.13l-2.08-8.845-2.426,2.211v6.634H17.314V15.779l2.426-2.211-.693-3.317a9.6,9.6,0,0,1-2.426,1.769,4.946,4.946,0,0,1-2.888-1.327A5.461,5.461,0,0,0,17.66,8.15l1.155-1.769a2.192,2.192,0,0,1,3-.885l5.892,2.432v5.2M19.047.3a2.269,2.269,0,0,1,2.311,2.211,2.313,2.313,0,0,1-4.621,0A2.269,2.269,0,0,1,19.047.3Z" transform="translate(282.289 17.275)" fill="#122d5f" stroke="#122d5f" stroke-linecap="round" stroke-width="0.5"/>
    <path id="kabaddi-3" data-name="kabaddi" d="M12.924,12.1a5.7,5.7,0,0,0,4.159,1.718l.116,2.4a8.445,8.445,0,0,1-5.892-2.4l-.809-.8L7.84,15.76l2.542,2.4v6.871H8.071V19.081l-1.5-1.374v2.519L1.717,25.15.1,23.547l4.159-4.123L2.873,15.416A1.524,1.524,0,0,1,3.566,13.7L7.378,9.919A2.024,2.024,0,0,1,9,9.118a2.089,2.089,0,0,1,1.271.344L12.924,12.1M13.155,5a2.29,2.29,0,1,1-2.311,2.29A2.307,2.307,0,0,1,13.155,5" transform="translate(283.9 16.425)" fill="#122d5f" stroke="#122d5f" stroke-linecap="round" stroke-width="0.5"/>
  </g>
</svg>
