<svg xmlns="http://www.w3.org/2000/svg" xmlns:xlink="http://www.w3.org/1999/xlink" width="116" height="80" viewBox="0 0 116 80">
  <defs>
    <clipPath id="clip-path">
      <rect id="Rectangle_9053" data-name="Rectangle 9053" width="116" height="80" transform="translate(0 0)" fill="none"/>
    </clipPath>
  </defs>
  <g id="logo_white" transform="translate(0 -0.004)">
    <g id="Group_12951" data-name="Group 12951" transform="translate(0 0.004)" clip-path="url(#clip-path)">
      <path id="Path_12800" data-name="Path 12800" d="M58.356,0C26.127,0,0,17.943,0,40.076S26.127,80.152,58.356,80.152s58.356-17.943,58.356-40.076S90.585,0,58.356,0M97.08,67.072C86.724,74.184,72.971,78.1,58.356,78.1S29.989,74.184,19.632,67.072C9.17,59.887,3.408,50.3,3.408,40.076s5.762-19.811,16.224-27C29.989,5.968,43.741,2.051,58.356,2.051S86.724,5.968,97.08,13.08c10.462,7.185,16.224,16.772,16.224,27s-5.762,19.81-16.224,27" transform="translate(0 -0.003)" fill="#fff"/>
      <path id="Path_12801" data-name="Path 12801" d="M252.574,85.739v5.888a109.04,109.04,0,0,1,12.841.9l2.346-5.3a81.75,81.75,0,0,0-15.186-1.491" transform="translate(-193.726 -65.825)" fill="#fff"/>
      <path id="Path_12802" data-name="Path 12802" d="M201.1,119.363c-3.821.027-7.232.255-10.117.558q-1.566.165-3,.363l2.362,5.513a101.125,101.125,0,0,1,10.755-.541Z" transform="translate(-144.187 -91.639)" fill="#fff"/>
      <path id="Path_12803" data-name="Path 12803" d="M177.268,92.634q1.665-.235,3.518-.434c2.96-.314,6.461-.549,10.386-.576V85.739a80.237,80.237,0,0,0-16.133,1.691Z" transform="translate(-134.256 -65.825)" fill="#fff"/>
      <path id="Path_12804" data-name="Path 12804" d="M252.574,119.375v5.9c3.691.039,7.017.225,9.55.508l2.477-5.593a107.24,107.24,0,0,0-12.027-.813" transform="translate(-193.726 -91.648)" fill="#fff"/>
      <path id="Path_12805" data-name="Path 12805" d="M243.411,70.024a.957.957,0,0,1-.076-.376V67.78H238.76v1.868a.958.958,0,0,1-.075.372q1.126-.025,2.27-.026,1.239,0,2.456.03" transform="translate(-183.073 -52.038)" fill="#fff"/>
      <path id="Path_12806" data-name="Path 12806" d="M149,111.381c16.681,0,30.2-4.325,30.2-9.66,0-3.167-4.766-5.978-12.128-7.74l-2.281,5.151a106.061,106.061,0,0,1,12.293,2.575.963.963,0,1,1-.51,1.857,104.171,104.171,0,0,0-12.592-2.606l-2.478,5.6c1.852.3,2.945.676,2.945,1.078,0,1.029-7.135,1.864-15.936,1.864s-15.937-.834-15.937-1.864c0-.385,1-.744,2.718-1.041l-2.358-5.5a70.634,70.634,0,0,0-10.843,2.458.963.963,0,1,1-.634-1.819,69.32,69.32,0,0,1,10.694-2.467l-2.162-5.047c-6.832,1.771-11.2,4.476-11.2,7.508,0,5.335,13.523,9.66,30.2,9.66" transform="translate(-91.114 -72.154)" fill="#fff"/>
      <path id="Path_12807" data-name="Path 12807" d="M75.711,16.83C46.441,16.83,22.627,33.054,22.627,53S46.441,89.162,75.711,89.162,128.8,72.939,128.8,53,104.982,16.83,75.711,16.83m-20.672,45.9L52.18,69.521H49.714q1-2.286,1.8-4.11l.67-1.517q.33-.746.59-1.352t.429-.989a3.688,3.688,0,0,1,.206-.429,1.106,1.106,0,0,1,.232-.374A.66.66,0,0,1,54,60.685h2.466l3.949,8.836H57.969l-.429-1.011a1.007,1.007,0,0,0-.241-.374.666.666,0,0,0-.349-.066H53.61l.661-1.583a1.3,1.3,0,0,1,.232-.363.579.579,0,0,1,.357-.077h1.608ZM49.2,65.63a1.1,1.1,0,0,1-.233.351.654.654,0,0,1-.357.066H45.319l.626-1.473a1.1,1.1,0,0,1,.232-.352.659.659,0,0,1,.357-.066h3.288Zm1.465-3.385a.874.874,0,0,1-.223.352.712.712,0,0,1-.366.066H45.337a.386.386,0,0,0-.322.165.655.655,0,0,0-.125.407v6.286h-2.2V60.685h8.63Zm1.546,18.74-.429-1.011a1.007,1.007,0,0,0-.241-.374.666.666,0,0,0-.349-.066H47.847l.661-1.582a1.321,1.321,0,0,1,.232-.363.583.583,0,0,1,.358-.077h1.608l-1.429-3.319-2.859,6.792H43.953q1-2.285,1.8-4.11.339-.769.67-1.517t.59-1.352q.259-.6.429-.989a3.647,3.647,0,0,1,.205-.428,1.115,1.115,0,0,1,.233-.374.656.656,0,0,1,.357-.066h2.466l3.949,8.836Zm9.219,0-3.681-3.912v3.912h-2.2V72.149h2.2v3.934l3.341-3.934h2.8l-3.877,4.308,4.342,4.528ZM61.31,69.521V61.234a.581.581,0,0,1,.134-.4.422.422,0,0,1,.331-.154H64.6l3.27,6.792V60.685h2.2v8.264a.622.622,0,0,1-.134.407.41.41,0,0,1-.33.165H66.777l-3.27-6.792v6.792Zm6.137,11.464h-2.2V72.149h2.2Zm6.5,0H71.736V77.512h-3.86L68.5,76.04a1.088,1.088,0,0,1,.233-.351.654.654,0,0,1,.357-.066h2.644V72.149h2.215ZM70.78,62.663l.661-1.561a.876.876,0,0,1,.223-.352.664.664,0,0,1,.349-.066H80.5l-.661,1.56a1.112,1.112,0,0,1-.232.352.659.659,0,0,1-.357.066H77.194a.41.41,0,0,0-.33.165.625.625,0,0,0-.134.407v6.286h-2.2V62.663ZM83.1,80.985l-.429-1.011a1.007,1.007,0,0,0-.241-.374.666.666,0,0,0-.349-.066H78.739l.661-1.582a1.31,1.31,0,0,1,.232-.363.582.582,0,0,1,.358-.077H81.6l-1.429-3.319L77.31,80.985H74.845q1-2.285,1.8-4.11.339-.769.67-1.517t.59-1.352q.259-.6.429-.989a3.715,3.715,0,0,1,.205-.428,1.118,1.118,0,0,1,.233-.374.656.656,0,0,1,.357-.066H81.6l3.949,8.836ZM82.787,68.07l.661-1.583a1.3,1.3,0,0,1,.232-.363.58.58,0,0,1,.357-.077h1.608l-1.429-3.319-2.859,6.792H78.891q1-2.286,1.8-4.11l.67-1.517q.33-.746.59-1.352t.429-.989a3.6,3.6,0,0,1,.206-.429,1.106,1.106,0,0,1,.232-.374.659.659,0,0,1,.358-.066h2.466l3.949,8.836H87.146l-.429-1.011a1,1,0,0,0-.241-.374.666.666,0,0,0-.349-.066Zm9.96,12.915H89.084l.661-1.582a1.308,1.308,0,0,1,.232-.363.582.582,0,0,1,.358-.077h2.126a3.336,3.336,0,0,0,.768-.088,1.5,1.5,0,0,0,.661-.34,1.734,1.734,0,0,0,.455-.715,3.649,3.649,0,0,0,.17-1.231v-.022a3.671,3.671,0,0,0-.17-1.22,1.821,1.821,0,0,0-.455-.736,1.546,1.546,0,0,0-.652-.363,2.9,2.9,0,0,0-.76-.1H89.1a.386.386,0,0,0-.322.165.651.651,0,0,0-.125.407v6.264H86.44V72.149h6.307a3.658,3.658,0,0,1,3.028,1.209,4.963,4.963,0,0,1,.974,3.209v.022a4.916,4.916,0,0,1-.974,3.2,3.673,3.673,0,0,1-3.028,1.2m-.4-17.135a.489.489,0,0,0,.393.2H97.4a1.95,1.95,0,0,1,.857.2,2.045,2.045,0,0,1,.706.56,2.92,2.92,0,0,1,.474.857,3.258,3.258,0,0,1,.178,1.11,3.353,3.353,0,0,1-.178,1.121,2.891,2.891,0,0,1-.474.868,2.045,2.045,0,0,1-.706.561,1.953,1.953,0,0,1-.857.2H90.326l.679-1.583a1.105,1.105,0,0,1,.233-.374.656.656,0,0,1,.357-.066h5.378a.521.521,0,0,0,.42-.209.872.872,0,0,0,0-1.033.522.522,0,0,0-.42-.209H92.685a2.8,2.8,0,0,1-1-.176,2.246,2.246,0,0,1-.813-.528,2.494,2.494,0,0,1-.545-.846,3.363,3.363,0,0,1,0-2.264,2.492,2.492,0,0,1,.545-.846,2.253,2.253,0,0,1,.813-.528,2.814,2.814,0,0,1,1-.176h5.878L97.9,62.267a1.11,1.11,0,0,1-.232.352.661.661,0,0,1-.358.066H92.738a.49.49,0,0,0-.393.2.808.808,0,0,0,0,.967m12.5,17.135-.429-1.011a1.01,1.01,0,0,0-.241-.374.668.668,0,0,0-.349-.066h-3.341l.661-1.582a1.31,1.31,0,0,1,.232-.363.582.582,0,0,1,.357-.077h1.608l-1.429-3.319-2.859,6.792H96.589q1-2.285,1.8-4.11l.67-1.517q.33-.747.59-1.352t.429-.989a3.606,3.606,0,0,1,.206-.428,1.108,1.108,0,0,1,.232-.374.659.659,0,0,1,.358-.066h2.466l3.949,8.836Zm.885-14.673v3.209h-2.216V66.136l-3.359-5.451h2.269l2.233,3.758,2.162-3.758h2.269ZM75.237,55.154c-19.422,0-35.166-5.434-35.166-12.137,0-2.185,1.674-4.235,4.6-6.006V30.476a.46.46,0,0,1,.109-.316.348.348,0,0,1,.27-.122h6.518L45.94,33.945V36.3a42.555,42.555,0,0,1,9.973-3.427V26.624a.459.459,0,0,1,.109-.316.348.348,0,0,1,.27-.122h6.518L57.18,30.093V32.6A86.792,86.792,0,0,1,71.214,30.96a.949.949,0,0,1-.1-.426V28.666h-.7V24.5h10.01v4.167h-.869v1.868a.951.951,0,0,1-.107.433,89.2,89.2,0,0,1,11.948,1.267V26.624a.459.459,0,0,1,.109-.316.348.348,0,0,1,.27-.122h6.518l-5.631,3.907v2.379a51.85,51.85,0,0,1,9.446,2.714v-5.06a.459.459,0,0,1,.11-.316.348.348,0,0,1,.27-.122H109l-5.63,3.907v2.139c4.417,2.029,7.036,4.551,7.036,7.284,0,6.7-15.744,12.137-35.165,12.137" transform="translate(-17.355 -12.924)" fill="#fff"/>
    </g>
  </g>
</svg>
