<svg xmlns="http://www.w3.org/2000/svg" width="61" height="43.571" viewBox="0 0 61 43.571">
  <g id="logo_blue" transform="translate(0 0.074)">
    <path id="Path_12800" data-name="Path 12800" d="M30.5,0C13.655,0,0,9.754,0,21.786S13.655,43.571,30.5,43.571,61,33.818,61,21.786,47.345,0,30.5,0M50.739,36.461a35,35,0,0,1-20.239,6,35,35,0,0,1-20.239-6c-5.468-3.906-8.48-9.117-8.48-14.675s3.011-10.769,8.48-14.675a35,35,0,0,1,20.239-6,35,35,0,0,1,20.239,6c5.468,3.906,8.48,9.118,8.48,14.675s-3.011,10.769-8.48,14.675" transform="translate(0 -0.074)" fill="#122d5f"/>
    <path id="Path_12801" data-name="Path 12801" d="M252.574,85.739v3.2a54.83,54.83,0,0,1,6.711.489l1.226-2.879a41.135,41.135,0,0,0-7.937-.81" transform="translate(-221.817 -74.986)" fill="#122d5f"/>
    <path id="Path_12802" data-name="Path 12802" d="M194.841,119.363a52.19,52.19,0,0,0-5.288.3q-.819.09-1.568.2l1.235,3a50.834,50.834,0,0,1,5.621-.294Z" transform="translate(-165.094 -104.364)" fill="#122d5f"/>
    <path id="Path_12803" data-name="Path 12803" d="M176.2,89.487q.87-.128,1.839-.236a53.173,53.173,0,0,1,5.428-.313v-3.2a40.384,40.384,0,0,0-8.432.919Z" transform="translate(-153.724 -74.986)" fill="#122d5f"/>
    <path id="Path_12804" data-name="Path 12804" d="M252.574,119.375v3.206a49.858,49.858,0,0,1,4.991.276l1.294-3.041a53.919,53.919,0,0,0-6.286-.442" transform="translate(-221.817 -104.375)" fill="#122d5f"/>
    <path id="Path_12805" data-name="Path 12805" d="M241.155,69a.538.538,0,0,1-.04-.2V67.78h-2.391V68.8a.538.538,0,0,1-.039.2q.589-.013,1.187-.014.647,0,1.283.016" transform="translate(-209.619 -59.295)" fill="#122d5f"/>
    <path id="Path_12806" data-name="Path 12806" d="M134.579,103.441c8.718,0,15.786-2.351,15.786-5.251,0-1.722-2.491-3.25-6.339-4.207l-1.192,2.8a53.575,53.575,0,0,1,6.425,1.4.526.526,0,0,1,.354.643.508.508,0,0,1-.487.386.484.484,0,0,1-.134-.019,52.618,52.618,0,0,0-6.581-1.417l-1.295,3.042c.968.165,1.539.368,1.539.586,0,.56-3.729,1.013-8.329,1.013S126,101.963,126,101.4c0-.21.524-.4,1.421-.566l-1.232-2.992a35.733,35.733,0,0,0-5.667,1.336.5.5,0,0,1-.642-.323.528.528,0,0,1,.311-.666,35.073,35.073,0,0,1,5.589-1.341l-1.13-2.744c-3.571.963-5.854,2.433-5.854,4.081,0,2.9,7.068,5.251,15.787,5.251" transform="translate(-104.326 -82.188)" fill="#122d5f"/>
    <path id="Path_12807" data-name="Path 12807" d="M50.372,16.83c-15.3,0-27.745,8.82-27.745,19.66s12.446,19.66,27.745,19.66,27.744-8.819,27.744-19.66S65.67,16.83,50.372,16.83m-10.8,24.951-1.494,3.692H36.784q.523-1.243.943-2.234l.35-.824q.173-.406.308-.735t.224-.538a2.039,2.039,0,0,1,.108-.233.6.6,0,0,1,.121-.2.334.334,0,0,1,.187-.036h1.289l2.064,4.8H41.1l-.224-.55a.549.549,0,0,0-.126-.2.337.337,0,0,0-.182-.036H38.82l.346-.86a.712.712,0,0,1,.121-.2.294.294,0,0,1,.187-.042h.84Zm-3.054,1.577a.6.6,0,0,1-.122.191.331.331,0,0,1-.187.036H34.487l.327-.8a.6.6,0,0,1,.121-.191.333.333,0,0,1,.187-.036H36.84Zm.766-1.84a.477.477,0,0,1-.117.191.36.36,0,0,1-.192.036H34.5a.2.2,0,0,0-.168.09.366.366,0,0,0-.065.221v3.417H33.114v-4.8h4.51Zm.808,10.187-.224-.55a.549.549,0,0,0-.126-.2.337.337,0,0,0-.182-.036H35.808l.346-.86a.721.721,0,0,1,.121-.2.3.3,0,0,1,.187-.042h.84l-.747-1.8-1.494,3.692H33.773q.523-1.242.943-2.234l.35-.824q.173-.406.308-.735t.224-.538a2.016,2.016,0,0,1,.107-.233.609.609,0,0,1,.122-.2.332.332,0,0,1,.187-.036H37.3l2.064,4.8Zm4.818,0-1.924-2.127v2.127H39.833V46.9h1.149v2.139L42.728,46.9h1.466l-2.026,2.342,2.269,2.461Zm-.061-6.232v-4.5a.324.324,0,0,1,.07-.215.217.217,0,0,1,.173-.084h1.475l1.709,3.692V40.67h1.149v4.493a.347.347,0,0,1-.07.221.212.212,0,0,1-.173.09H45.7l-1.709-3.692v3.692Zm3.208,6.232H44.9V46.9h1.149Zm3.4,0H48.294V49.818H46.277l.327-.8a.593.593,0,0,1,.122-.191.331.331,0,0,1,.187-.036h1.382V46.9h1.158Zm-1.658-9.96.345-.848a.478.478,0,0,1,.117-.191.336.336,0,0,1,.182-.036h4.436l-.346.848a.606.606,0,0,1-.121.191.333.333,0,0,1-.187.036H51.146a.211.211,0,0,0-.173.09.348.348,0,0,0-.07.221v3.417H49.755V41.745Zm6.439,9.96-.224-.55a.549.549,0,0,0-.126-.2.337.337,0,0,0-.182-.036H51.954l.346-.86a.715.715,0,0,1,.121-.2.3.3,0,0,1,.187-.042h.84l-.747-1.8-1.494,3.692H49.919q.523-1.242.943-2.234l.35-.824q.173-.406.308-.735t.224-.538a2.057,2.057,0,0,1,.107-.233.611.611,0,0,1,.122-.2.332.332,0,0,1,.187-.036h1.289l2.064,4.8Zm-.163-7.021.346-.86a.712.712,0,0,1,.121-.2.294.294,0,0,1,.187-.042h.841l-.747-1.8-1.494,3.692H52.034q.523-1.243.943-2.234l.35-.824q.173-.406.308-.735t.224-.538a1.994,1.994,0,0,1,.108-.233.6.6,0,0,1,.121-.2.333.333,0,0,1,.187-.036h1.289l2.064,4.8H56.348l-.224-.55a.548.548,0,0,0-.126-.2.337.337,0,0,0-.182-.036Zm5.206,7.021H57.361l.345-.86a.714.714,0,0,1,.121-.2.3.3,0,0,1,.187-.042h1.111a1.68,1.68,0,0,0,.4-.048.771.771,0,0,0,.346-.185.947.947,0,0,0,.238-.388,2.057,2.057,0,0,0,.089-.669V49.3a2.069,2.069,0,0,0-.089-.663,1,1,0,0,0-.238-.4.8.8,0,0,0-.341-.2,1.462,1.462,0,0,0-.4-.054H57.371a.2.2,0,0,0-.168.09.364.364,0,0,0-.065.221v3.405H55.979V46.9h3.3a1.877,1.877,0,0,1,1.583.657,2.773,2.773,0,0,1,.509,1.744v.012a2.746,2.746,0,0,1-.509,1.739,1.884,1.884,0,0,1-1.583.651m-.21-9.315a.252.252,0,0,0,.205.107h2.437a.987.987,0,0,1,.448.108,1.077,1.077,0,0,1,.369.3,1.607,1.607,0,0,1,.248.466,1.836,1.836,0,0,1,.093.6,1.889,1.889,0,0,1-.093.609,1.592,1.592,0,0,1-.248.472,1.077,1.077,0,0,1-.369.3.989.989,0,0,1-.448.108h-3.7l.355-.86a.6.6,0,0,1,.122-.2.332.332,0,0,1,.187-.036h2.811a.269.269,0,0,0,.22-.114.489.489,0,0,0,0-.562.269.269,0,0,0-.22-.113H59.243a1.412,1.412,0,0,1-.523-.1A1.171,1.171,0,0,1,58.3,43.2a1.363,1.363,0,0,1-.285-.46,1.9,1.9,0,0,1,0-1.231,1.362,1.362,0,0,1,.285-.46,1.174,1.174,0,0,1,.425-.287,1.42,1.42,0,0,1,.523-.1h3.072l-.346.86a.605.605,0,0,1-.121.191.334.334,0,0,1-.187.036H59.271a.253.253,0,0,0-.205.108.453.453,0,0,0,0,.526M65.6,51.705l-.224-.55a.551.551,0,0,0-.126-.2.338.338,0,0,0-.182-.036H63.319l.346-.86a.715.715,0,0,1,.121-.2.3.3,0,0,1,.187-.042h.84l-.747-1.8-1.494,3.692H61.283q.523-1.242.943-2.234l.35-.824q.173-.406.308-.735t.224-.538a1.994,1.994,0,0,1,.108-.233.606.606,0,0,1,.121-.2.333.333,0,0,1,.187-.036h1.289l2.064,4.8Zm.462-7.977v1.744H64.9v-1.84L63.146,40.67h1.186L65.5,42.713l1.13-2.043h1.186ZM50.124,37.663c-10.151,0-18.379-2.954-18.379-6.6,0-1.188.875-2.3,2.406-3.265V24.248a.256.256,0,0,1,.057-.172.179.179,0,0,1,.141-.066h3.407l-2.943,2.124v1.282a21.672,21.672,0,0,1,5.213-1.863v-3.4a.256.256,0,0,1,.057-.172.179.179,0,0,1,.141-.067h3.407L40.686,24.04V25.4a43.693,43.693,0,0,1,7.335-.892.533.533,0,0,1-.054-.231V23.264H47.6V21h5.232v2.265h-.454V24.28a.534.534,0,0,1-.056.235,44.891,44.891,0,0,1,6.244.689V22.154a.256.256,0,0,1,.057-.172.179.179,0,0,1,.141-.067H62.17L59.227,24.04v1.293a26.306,26.306,0,0,1,4.937,1.476V24.058a.256.256,0,0,1,.057-.172.179.179,0,0,1,.141-.066h3.406l-2.943,2.124v1.163c2.309,1.1,3.677,2.474,3.677,3.96,0,3.644-8.229,6.6-18.379,6.6" transform="translate(-19.872 -14.779)" fill="#122d5f"/>
  </g>
</svg>
