<svg xmlns="http://www.w3.org/2000/svg" width="24.783" height="19.929" viewBox="0 0 24.783 19.929">
  <g id="quick_withdrawals" transform="translate(-1.813)">
    <path id="Path_12829" data-name="Path 12829" d="M2.546,0H25.863A.734.734,0,0,1,26.6.733V6.785a.734.734,0,0,1-.733.733H20.981V19.312c.032.454-.178.627-.547.615H7.991c-.366.021-.573-.165-.564-.634V7.518H2.546a.734.734,0,0,1-.733-.733V.733A.734.734,0,0,1,2.546,0ZM13.471,6.684a.733.733,0,0,1,1.466,0V8.051a7.2,7.2,0,0,1,1.117.257A.731.731,0,0,1,15.608,9.7a5.97,5.97,0,0,0-.67-.172v2.118c3.372.837,2.638,4.3,0,4.653v.929a.733.733,0,0,1-1.466,0v-.986a8.266,8.266,0,0,1-1.776-.563.731.731,0,0,1,.584-1.34,7.285,7.285,0,0,0,1.192.41V12.807c-3.516-.864-2.592-4.492,0-4.8V6.684Zm1.466,6.5v1.637C15.932,14.578,15.967,13.565,14.937,13.18Zm-1.466-1.9V9.5C12.522,9.751,12.4,10.877,13.471,11.275Zm6.044-6.8H8.894V18.461H19.515V4.478Zm-12.535,0a.733.733,0,0,1,0-1.466H21.429a.733.733,0,0,1,0,1.466h-.447V6.052h4.148V1.466H3.279V6.052H7.427V4.479Z" fill="#fff"/>
  </g>
</svg>
