<svg xmlns="http://www.w3.org/2000/svg" width="24" height="24" viewBox="0 0 24 24">
  <g id="safe_payment_icon" transform="translate(-67 -664)">
    <rect id="Rectangle_9058" data-name="Rectangle 9058" width="24" height="24" transform="translate(67 664)" fill="#fff" opacity="0"/>
    <g id="noun-secure-1825569" transform="translate(-72.425 634.196)">
      <path id="Path_12825" data-name="Path 12825" d="M142.927,35.438a12.068,12.068,0,0,0-.5,3.5,15.345,15.345,0,0,0,.923,5.106,17.975,17.975,0,0,0,3.687,6.144,10.73,10.73,0,0,0,2.266,1.885,4.569,4.569,0,0,0,2.287.736,3.916,3.916,0,0,0,1.523-.344,8.919,8.919,0,0,0,2.659-1.9,17.393,17.393,0,0,0,3.459-5.05,15.986,15.986,0,0,0,1.522-6.581,12.07,12.07,0,0,0-.5-3.495.618.618,0,0,0-.592-.44A10.3,10.3,0,0,1,155,34.118h0a5.868,5.868,0,0,1-1.574-1.145,7.343,7.343,0,0,1-1.233-1.72c-.027-.05-.042-.078-.042-.08h0a.618.618,0,0,0-1.132,0s-.015.03-.042.08h0a7.342,7.342,0,0,1-1.233,1.72,6.087,6.087,0,0,1-2.527,1.534,11.969,11.969,0,0,1-3.7.492.618.618,0,0,0-.592.439Zm5.8-.216h0a7.109,7.109,0,0,0,1.9-1.383,8.034,8.034,0,0,0,.958-1.2,8.032,8.032,0,0,0,.959,1.2,7.33,7.33,0,0,0,3.026,1.843,12.6,12.6,0,0,0,3.611.546,10.963,10.963,0,0,1,.331,2.705,14.119,14.119,0,0,1-.852,4.692,16.754,16.754,0,0,1-3.424,5.712,9.52,9.52,0,0,1-2,1.669,3.38,3.38,0,0,1-1.653.561,2.7,2.7,0,0,1-1.038-.245,7.727,7.727,0,0,1-2.275-1.638,16.17,16.17,0,0,1-3.2-4.686,14.757,14.757,0,0,1-1.41-6.066,10.948,10.948,0,0,1,.331-2.707,11.04,11.04,0,0,0,4.736-1Z" fill="#fff" stroke="#fff" stroke-width="0.5"/>
      <path id="Path_12826" data-name="Path 12826" d="M250.78,241.447l2.6,2.6a.618.618,0,0,0,.874,0l4.942-4.942a.618.618,0,1,0-.874-.874l-4.5,4.5-2.161-2.161a.618.618,0,0,0-.874.874Z" transform="translate(-103.4 -198.096)" fill="#fff" stroke="#fff" stroke-width="0.5"/>
    </g>
  </g>
</svg>
