<svg xmlns="http://www.w3.org/2000/svg" xmlns:xlink="http://www.w3.org/1999/xlink" width="280" height="70" viewBox="0 0 280 70">
  <defs>
    <linearGradient id="linear-gradient" x1="0.5" x2="0.5" y2="1" gradientUnits="objectBoundingBox">
      <stop offset="0" stop-color="#118d68"/>
      <stop offset="1" stop-color="#048667"/>
    </linearGradient>
    <linearGradient id="linear-gradient-3" x1="0.5" y1="1" x2="0.5" gradientUnits="objectBoundingBox">
      <stop offset="0" stop-color="#1d93d2"/>
      <stop offset="1" stop-color="#38b0e3"/>
    </linearGradient>
    <clipPath id="clip-path">
      <rect id="Rectangle_9823" data-name="Rectangle 9823" width="280" height="70" rx="6" fill="url(#linear-gradient)"/>
    </clipPath>
  </defs>
  <g id="telegram_banner" transform="translate(-10 -235)">
    <rect id="Rectangle_9822" data-name="Rectangle 9822" width="280" height="70" rx="6" transform="translate(10 235)" fill="url(#linear-gradient)"/>
    <path id="Path_21386" data-name="Path 21386" d="M5.8-10.262a2.614,2.614,0,0,1,.8.091.639.639,0,0,1,.371.3A2.037,2.037,0,0,1,7.126-9v5.418a3.672,3.672,0,0,1-1.064,2.6A3.571,3.571,0,0,1,3.346.14,3.255,3.255,0,0,1,1.708-.266a3.492,3.492,0,0,1-.9-.63L.7-1.008A1.44,1.44,0,0,1,.21-1.9,1.392,1.392,0,0,1,.7-2.772a1.337,1.337,0,0,1,.868-.5,1.279,1.279,0,0,1,.84.462,1.4,1.4,0,0,0,1,.462A1.18,1.18,0,0,0,4.3-2.716a1.335,1.335,0,0,0,.35-.966V-8.918A1.449,1.449,0,0,1,4.928-10,1.321,1.321,0,0,1,5.8-10.262Zm7.546-.126a4.967,4.967,0,0,1,3.6,1.5,5,5,0,0,1,1.526,3.717,5.342,5.342,0,0,1-1.456,3.78A4.708,4.708,0,0,1,13.426.168a4.849,4.849,0,0,1-3.619-1.54A5.091,5.091,0,0,1,8.316-5.04a5.637,5.637,0,0,1,.42-2.177,5.047,5.047,0,0,1,1.12-1.7A5.243,5.243,0,0,1,11.466-10,4.7,4.7,0,0,1,13.342-10.388ZM10.794-5.11A2.685,2.685,0,0,0,11.6-3.087a2.532,2.532,0,0,0,1.8.777,2.542,2.542,0,0,0,1.792-.756,2.664,2.664,0,0,0,.8-2.03,2.7,2.7,0,0,0-.805-2.044,2.543,2.543,0,0,0-1.8-.77,2.508,2.508,0,0,0-1.792.777A2.7,2.7,0,0,0,10.794-5.11Zm8.862-3.92a4.067,4.067,0,0,1,.021-.483,1.122,1.122,0,0,1,.133-.371q.2-.378,1.092-.378.98,0,1.162.518a2.784,2.784,0,0,1,.07.728v7.784a4.042,4.042,0,0,1-.021.49,1.129,1.129,0,0,1-.133.364Q21.784,0,20.888,0q-.98,0-1.148-.532a2.2,2.2,0,0,1-.084-.714Zm10.507-.805a.666.666,0,0,1,.4-.329,2.241,2.241,0,0,1,.665-.084,2.414,2.414,0,0,1,.644.07,1.021,1.021,0,0,1,.364.168.571.571,0,0,1,.175.294A2.2,2.2,0,0,1,32.494-9v7.77a4.041,4.041,0,0,1-.021.49,1.129,1.129,0,0,1-.133.364Q32.144,0,31.248,0a2.306,2.306,0,0,1-.756-.084.818.818,0,0,1-.35-.266Q26.992-4.55,26-5.838v4.606a4.042,4.042,0,0,1-.021.49,1.129,1.129,0,0,1-.133.364Q25.648,0,24.752,0q-.868,0-1.064-.378a1.117,1.117,0,0,1-.133-.378,4.259,4.259,0,0,1-.021-.49V-9.058a1.707,1.707,0,0,1,.133-.777.666.666,0,0,1,.4-.329,2.327,2.327,0,0,1,.686-.084,2.3,2.3,0,0,1,.665.077A.857.857,0,0,1,25.76-10a3.649,3.649,0,0,1,.322.364q2.954,4.018,3.948,5.306V-9.058A1.707,1.707,0,0,1,30.163-9.835Zm14.259-.049a.715.715,0,0,1,.406-.308,2.241,2.241,0,0,1,.665-.084,2.334,2.334,0,0,1,.637.07,1.106,1.106,0,0,1,.364.168.55.55,0,0,1,.182.294,2.341,2.341,0,0,1,.084.728v4.228a5.424,5.424,0,0,1-1.148,3.36A4.169,4.169,0,0,1,44.17-.273a4.305,4.305,0,0,1-1.953.441A4.207,4.207,0,0,1,40.271-.28,4.05,4.05,0,0,1,38.85-1.456a5.391,5.391,0,0,1-1.134-3.36V-9.03a4.232,4.232,0,0,1,.021-.5A1.122,1.122,0,0,1,37.87-9.9a.614.614,0,0,1,.378-.294,2.447,2.447,0,0,1,.714-.084,2.447,2.447,0,0,1,.714.084.562.562,0,0,1,.364.294,1.926,1.926,0,0,1,.168.882v4.2a3.343,3.343,0,0,0,.42,1.624,1.573,1.573,0,0,0,.63.63,1.983,1.983,0,0,0,.994.238,1.71,1.71,0,0,0,1.526-.756,3.081,3.081,0,0,0,.5-1.75V-9.114A1.539,1.539,0,0,1,44.422-9.884Zm3.472,8.442a1.342,1.342,0,0,1-.364-.8q0-.357.6-.945a1.063,1.063,0,0,1,.742-.336q.392,0,1.092.7a2.131,2.131,0,0,0,.56.455,1.332,1.332,0,0,0,.672.217q1.3,0,1.3-1.064a.628.628,0,0,0-.357-.539,2.617,2.617,0,0,0-.889-.315,7.652,7.652,0,0,1-1.148-.315A7.565,7.565,0,0,1,48.958-4.9a2.32,2.32,0,0,1-.889-.931,3.09,3.09,0,0,1-.357-1.533,2.943,2.943,0,0,1,.917-2.149,3.377,3.377,0,0,1,2.5-.917,5.113,5.113,0,0,1,1.533.217,2.94,2.94,0,0,1,.959.441l.35.266a1.093,1.093,0,0,1,.434.686,1.546,1.546,0,0,1-.336.77q-.476.7-.98.7a1.437,1.437,0,0,1-.728-.28,1.647,1.647,0,0,1-.161-.14,2.136,2.136,0,0,0-.217-.182,1.4,1.4,0,0,0-.749-.182,1.26,1.26,0,0,0-.756.217.7.7,0,0,0-.3.6.721.721,0,0,0,.357.623,2.205,2.205,0,0,0,.889.322,10.482,10.482,0,0,1,1.162.259,7.232,7.232,0,0,1,1.162.427,2.052,2.052,0,0,1,.889.875,3.041,3.041,0,0,1,.357,1.533,3.4,3.4,0,0,1-.364,1.6A2.77,2.77,0,0,1,53.676-.6,4.345,4.345,0,0,1,51.254.14a4.7,4.7,0,0,1-1.246-.161,3.376,3.376,0,0,1-.952-.4,3.4,3.4,0,0,1-1.036-.868ZM64.82-10.388a4.967,4.967,0,0,1,3.6,1.5,5,5,0,0,1,1.526,3.717,5.342,5.342,0,0,1-1.456,3.78A4.708,4.708,0,0,1,64.9.168a4.849,4.849,0,0,1-3.619-1.54A5.091,5.091,0,0,1,59.794-5.04a5.637,5.637,0,0,1,.42-2.177,5.047,5.047,0,0,1,1.12-1.7A5.243,5.243,0,0,1,62.944-10,4.7,4.7,0,0,1,64.82-10.388ZM62.272-5.11a2.685,2.685,0,0,0,.805,2.023,2.532,2.532,0,0,0,1.8.777,2.542,2.542,0,0,0,1.792-.756,2.664,2.664,0,0,0,.8-2.03,2.7,2.7,0,0,0-.805-2.044,2.543,2.543,0,0,0-1.8-.77,2.508,2.508,0,0,0-1.792.777A2.7,2.7,0,0,0,62.272-5.11ZM77.763-9.835a.666.666,0,0,1,.4-.329,2.241,2.241,0,0,1,.665-.084,2.414,2.414,0,0,1,.644.07,1.021,1.021,0,0,1,.364.168.571.571,0,0,1,.175.294A2.2,2.2,0,0,1,80.094-9v7.77a4.042,4.042,0,0,1-.021.49,1.129,1.129,0,0,1-.133.364Q79.744,0,78.848,0a2.306,2.306,0,0,1-.756-.084.818.818,0,0,1-.35-.266q-3.15-4.2-4.144-5.488v4.606a4.041,4.041,0,0,1-.021.49,1.129,1.129,0,0,1-.133.364Q73.248,0,72.352,0q-.868,0-1.064-.378a1.117,1.117,0,0,1-.133-.378,4.259,4.259,0,0,1-.021-.49V-9.058a1.707,1.707,0,0,1,.133-.777.666.666,0,0,1,.4-.329,2.327,2.327,0,0,1,.686-.084,2.3,2.3,0,0,1,.665.077A.857.857,0,0,1,73.36-10a3.649,3.649,0,0,1,.322.364q2.954,4.018,3.948,5.306V-9.058A1.707,1.707,0,0,1,77.763-9.835Zm8.225-.441h7.784a1.549,1.549,0,0,1,.658.1.531.531,0,0,1,.28.329,2.023,2.023,0,0,1,.07.588,1.95,1.95,0,0,1-.07.581.481.481,0,0,1-.238.3,1.631,1.631,0,0,1-.714.126H91.084V-1.2a3.88,3.88,0,0,1-.021.476,1.136,1.136,0,0,1-.126.357.593.593,0,0,1-.371.287,2.387,2.387,0,0,1-.7.084,2.314,2.314,0,0,1-.693-.084.591.591,0,0,1-.364-.287,1.13,1.13,0,0,1-.126-.364,4.067,4.067,0,0,1-.021-.483V-8.246H85.974a1.549,1.549,0,0,1-.658-.105.531.531,0,0,1-.28-.329,2.023,2.023,0,0,1-.07-.588,1.95,1.95,0,0,1,.07-.581.481.481,0,0,1,.238-.3A1.631,1.631,0,0,1,85.988-10.276Zm12.32,7.8h4.312a4.067,4.067,0,0,1,.483.021,1.122,1.122,0,0,1,.371.133q.378.2.378,1.092,0,.98-.518,1.148a2.341,2.341,0,0,1-.728.084H97.062q-.98,0-1.148-.532a2.2,2.2,0,0,1-.084-.714V-9.03A1.356,1.356,0,0,1,96.1-10a1.463,1.463,0,0,1,1.008-.259h5.516a4.067,4.067,0,0,1,.483.021,1.122,1.122,0,0,1,.371.133q.378.2.378,1.092,0,.98-.518,1.148a2.341,2.341,0,0,1-.728.084h-4.3V-6.37h2.772a4.067,4.067,0,0,1,.483.021,1.122,1.122,0,0,1,.371.133q.378.2.378,1.092,0,.98-.532,1.148a2.341,2.341,0,0,1-.728.084H98.308Zm9.212.406h3.808a1.593,1.593,0,0,1,.672.1.531.531,0,0,1,.28.329,2.054,2.054,0,0,1,.07.6,2.054,2.054,0,0,1-.07.595.483.483,0,0,1-.238.308,1.577,1.577,0,0,1-.728.14h-5.04q-.98,0-1.148-.532a2.2,2.2,0,0,1-.084-.714V-9.03a4.067,4.067,0,0,1,.021-.483,1.122,1.122,0,0,1,.133-.371q.2-.378,1.092-.378.98,0,1.162.518a2.784,2.784,0,0,1,.07.728Zm8.5-.406h4.312a4.067,4.067,0,0,1,.483.021,1.122,1.122,0,0,1,.371.133q.378.2.378,1.092,0,.98-.518,1.148a2.341,2.341,0,0,1-.728.084h-5.544q-.98,0-1.148-.532a2.2,2.2,0,0,1-.084-.714V-9.03a1.356,1.356,0,0,1,.266-.973,1.463,1.463,0,0,1,1.008-.259h5.516a4.067,4.067,0,0,1,.483.021,1.122,1.122,0,0,1,.371.133q.378.2.378,1.092,0,.98-.518,1.148a2.341,2.341,0,0,1-.728.084h-4.3V-6.37h2.772a4.067,4.067,0,0,1,.483.021,1.122,1.122,0,0,1,.371.133q.378.2.378,1.092,0,.98-.532,1.148a2.341,2.341,0,0,1-.728.084h-2.744ZM128.1-6.188h2.464q.756.028.924.392a1.731,1.731,0,0,1,.14.784v3.08a1.223,1.223,0,0,1-.392.854A4.691,4.691,0,0,1,127.708.14a4.908,4.908,0,0,1-3.626-1.575,5.239,5.239,0,0,1-1.54-3.8,4.919,4.919,0,0,1,1.568-3.717,5.187,5.187,0,0,1,3.7-1.491,5.147,5.147,0,0,1,3.122,1.092.784.784,0,0,1,.378.623,1.42,1.42,0,0,1-.322.791q-.546.742-.994.742a1.921,1.921,0,0,1-.854-.385,2.5,2.5,0,0,0-1.4-.385,2.733,2.733,0,0,0-1.89.749,2.521,2.521,0,0,0-.826,1.96,2.814,2.814,0,0,0,.84,2.058,2.616,2.616,0,0,0,1.9.847A3.631,3.631,0,0,0,129.15-2.6V-4.13h-1.106a1.241,1.241,0,0,1-.616-.112.524.524,0,0,1-.238-.329,2.45,2.45,0,0,1-.056-.588,2.27,2.27,0,0,1,.063-.595.461.461,0,0,1,.231-.308A1.513,1.513,0,0,1,128.1-6.188Zm12.782,4.452a2.221,2.221,0,0,1,.21.728q0,.532-.868.9a1.925,1.925,0,0,1-.721.2.72.72,0,0,1-.448-.133,1,1,0,0,1-.259-.273q-.14-.266-1.092-2.534l-.434.028h-1.764v1.582a4.069,4.069,0,0,1-.021.483,1.122,1.122,0,0,1-.133.371q-.2.378-1.092.378-.98,0-1.148-.518a2.341,2.341,0,0,1-.084-.728V-9.03a4.069,4.069,0,0,1,.021-.483,1.122,1.122,0,0,1,.133-.371q.2-.378,1.092-.378H137.3a3.882,3.882,0,0,1,2.394.9,3.285,3.285,0,0,1,.924,1.176,3.7,3.7,0,0,1,.364,1.652,3.478,3.478,0,0,1-1.05,2.6Q140.238-3.192,140.882-1.736Zm-5.376-3.57H137.3a1.341,1.341,0,0,0,.812-.308,1.086,1.086,0,0,0,.406-.924,1.106,1.106,0,0,0-.406-.931,1.356,1.356,0,0,0-.84-.315h-1.764Zm12.558-4.228,3.78,7.812a1.827,1.827,0,0,1,.238.714q0,.5-.812.91a1.836,1.836,0,0,1-.749.238.748.748,0,0,1-.448-.126.836.836,0,0,1-.252-.266q-.077-.14-.217-.42l-.728-1.512H145L144.27-.672q-.14.28-.217.406a1,1,0,0,1-.252.259.72.72,0,0,1-.448.133,1.836,1.836,0,0,1-.749-.238q-.812-.392-.812-.9a1.827,1.827,0,0,1,.238-.714l3.78-7.826a1.223,1.223,0,0,1,.469-.518,1.239,1.239,0,0,1,.665-.2A1.185,1.185,0,0,1,148.064-9.534Zm-1.134,3.36-.924,1.918h1.862Zm17.108-3.7a1.117,1.117,0,0,1,.133.378,4.261,4.261,0,0,1,.021.49v7.77q0,.966-.532,1.134a2.269,2.269,0,0,1-.672.084,2.366,2.366,0,0,1-.644-.07,1.106,1.106,0,0,1-.364-.168.631.631,0,0,1-.2-.28,2.784,2.784,0,0,1-.07-.728V-5.95q-.35.434-1.022,1.379t-.854,1.183l-.252.329a1.347,1.347,0,0,1-.343.252,1.138,1.138,0,0,1-.588.161,1.142,1.142,0,0,1-.574-.147,1.293,1.293,0,0,1-.371-.287l-.112-.154q-.28-.35-1.106-1.491t-.9-1.225v4.718a4.069,4.069,0,0,1-.021.483,1,1,0,0,1-.133.357q-.21.378-1.092.378-.854,0-1.064-.378a.994.994,0,0,1-.133-.364,4.429,4.429,0,0,1-.021-.5V-9.03a4.069,4.069,0,0,1,.021-.483,1.122,1.122,0,0,1,.133-.371q.21-.364,1.092-.364a2.067,2.067,0,0,1,.651.091.84.84,0,0,1,.357.189l.084.084,3.178,4.172q2.38-3.15,3.178-4.158.238-.378,1.127-.378T164.038-9.87Z" transform="translate(24 265)" fill="#fff"/>
    <path id="Path_21385" data-name="Path 21385" d="M30.156-1.776H33.42a1.365,1.365,0,0,1,.576.09.455.455,0,0,1,.24.282,1.76,1.76,0,0,1,.06.51,1.76,1.76,0,0,1-.06.51.414.414,0,0,1-.2.264,1.352,1.352,0,0,1-.624.12h-4.32q-.84,0-.984-.456a1.887,1.887,0,0,1-.072-.612V-7.74a3.486,3.486,0,0,1,.018-.414.961.961,0,0,1,.114-.318q.168-.324.936-.324.84,0,1,.444a2.387,2.387,0,0,1,.06.624Zm10-6.4,3.24,6.7a1.566,1.566,0,0,1,.2.612q0,.432-.7.78a1.574,1.574,0,0,1-.642.2.641.641,0,0,1-.384-.108.717.717,0,0,1-.216-.228q-.066-.12-.186-.36l-.624-1.3H37.524L36.9-.576q-.12.24-.186.348a.855.855,0,0,1-.216.222.617.617,0,0,1-.384.114,1.574,1.574,0,0,1-.642-.2q-.7-.336-.7-.768a1.566,1.566,0,0,1,.2-.612l3.24-6.708a1.048,1.048,0,0,1,.4-.444,1.062,1.062,0,0,1,.57-.168A1.016,1.016,0,0,1,40.152-8.172Zm-.972,2.88-.792,1.644h1.6Zm3.408-3.516H49.26a1.327,1.327,0,0,1,.564.09.455.455,0,0,1,.24.282,1.734,1.734,0,0,1,.06.5,1.672,1.672,0,0,1-.06.5.412.412,0,0,1-.2.258,1.4,1.4,0,0,1-.612.108H46.956v6.036a3.326,3.326,0,0,1-.018.408.974.974,0,0,1-.108.306.509.509,0,0,1-.318.246,2.046,2.046,0,0,1-.6.072,1.984,1.984,0,0,1-.594-.072.507.507,0,0,1-.312-.246A.968.968,0,0,1,44.9-.63a3.486,3.486,0,0,1-.018-.414V-7.068h-2.3a1.327,1.327,0,0,1-.564-.09.455.455,0,0,1-.24-.282,1.734,1.734,0,0,1-.06-.5,1.672,1.672,0,0,1,.06-.5.412.412,0,0,1,.2-.258A1.4,1.4,0,0,1,42.588-8.808Zm10.32,6.684h3.7a3.486,3.486,0,0,1,.414.018.961.961,0,0,1,.318.114q.324.168.324.936,0,.84-.444.984A2.006,2.006,0,0,1,56.592,0H51.84Q51,0,50.856-.456a1.887,1.887,0,0,1-.072-.612V-7.74a1.162,1.162,0,0,1,.228-.834,1.254,1.254,0,0,1,.864-.222H56.6a3.486,3.486,0,0,1,.414.018.961.961,0,0,1,.318.114q.324.168.324.936,0,.84-.444.984a2.006,2.006,0,0,1-.624.072H52.908V-5.46h2.376a3.486,3.486,0,0,1,.414.018.961.961,0,0,1,.318.114q.324.168.324.936,0,.84-.456.984a2.006,2.006,0,0,1-.624.072H52.908Zm5.664.888a1.15,1.15,0,0,1-.312-.69q0-.306.516-.81a.911.911,0,0,1,.636-.288q.336,0,.936.6a1.827,1.827,0,0,0,.48.39,1.141,1.141,0,0,0,.576.186q1.116,0,1.116-.912a.539.539,0,0,0-.306-.462,2.243,2.243,0,0,0-.762-.27,6.559,6.559,0,0,1-.984-.27,6.485,6.485,0,0,1-.984-.438,1.988,1.988,0,0,1-.762-.8,2.649,2.649,0,0,1-.306-1.314A2.522,2.522,0,0,1,59.2-8.154a2.894,2.894,0,0,1,2.142-.786,4.382,4.382,0,0,1,1.314.186,2.52,2.52,0,0,1,.822.378l.3.228a.937.937,0,0,1,.372.588,1.325,1.325,0,0,1-.288.66q-.408.6-.84.6a1.232,1.232,0,0,1-.624-.24,1.411,1.411,0,0,1-.138-.12,1.831,1.831,0,0,0-.186-.156,1.2,1.2,0,0,0-.642-.156,1.08,1.08,0,0,0-.648.186.6.6,0,0,0-.258.516.618.618,0,0,0,.306.534,1.89,1.89,0,0,0,.762.276,8.985,8.985,0,0,1,1,.222,6.2,6.2,0,0,1,1,.366,1.759,1.759,0,0,1,.762.75,2.607,2.607,0,0,1,.306,1.314,2.912,2.912,0,0,1-.312,1.374,2.374,2.374,0,0,1-.816.918A3.725,3.725,0,0,1,61.452.12a4.028,4.028,0,0,1-1.068-.138,2.893,2.893,0,0,1-.816-.342A2.917,2.917,0,0,1,58.68-1.1Zm6.84-7.572h6.672a1.327,1.327,0,0,1,.564.09.455.455,0,0,1,.24.282,1.735,1.735,0,0,1,.06.5,1.672,1.672,0,0,1-.06.5.412.412,0,0,1-.2.258,1.4,1.4,0,0,1-.612.108H69.78v6.036a3.325,3.325,0,0,1-.018.408.974.974,0,0,1-.108.306.509.509,0,0,1-.318.246,2.046,2.046,0,0,1-.6.072,1.984,1.984,0,0,1-.594-.072.507.507,0,0,1-.312-.246.969.969,0,0,1-.108-.312,3.486,3.486,0,0,1-.018-.414V-7.068H65.4a1.327,1.327,0,0,1-.564-.09.455.455,0,0,1-.24-.282,1.734,1.734,0,0,1-.06-.5,1.672,1.672,0,0,1,.06-.5.412.412,0,0,1,.2-.258A1.4,1.4,0,0,1,65.412-8.808Zm16.98.336a.613.613,0,0,1,.348-.264,1.921,1.921,0,0,1,.57-.072,2,2,0,0,1,.546.06.948.948,0,0,1,.312.144.471.471,0,0,1,.156.252,2.006,2.006,0,0,1,.072.624V-4.1a4.649,4.649,0,0,1-.984,2.88,3.573,3.573,0,0,1-1.236.99A3.69,3.69,0,0,1,80.5.144,3.606,3.606,0,0,1,78.834-.24a3.471,3.471,0,0,1-1.218-1.008,4.621,4.621,0,0,1-.972-2.88V-7.74a3.627,3.627,0,0,1,.018-.426.961.961,0,0,1,.114-.318.526.526,0,0,1,.324-.252,2.1,2.1,0,0,1,.612-.072,2.1,2.1,0,0,1,.612.072.481.481,0,0,1,.312.252,1.651,1.651,0,0,1,.144.756v3.6a2.866,2.866,0,0,0,.36,1.392,1.349,1.349,0,0,0,.54.54,1.7,1.7,0,0,0,.852.2A1.465,1.465,0,0,0,81.84-2.64a2.641,2.641,0,0,0,.432-1.5V-7.812A1.319,1.319,0,0,1,82.392-8.472ZM91.848-7.02A3.172,3.172,0,0,1,92.16-5.6a3.134,3.134,0,0,1-.312,1.41,2.768,2.768,0,0,1-.8,1,3.342,3.342,0,0,1-2.064.768h-1.5v1.356a3.487,3.487,0,0,1-.018.414.961.961,0,0,1-.114.318q-.168.324-.936.324-.84,0-.984-.444a2.006,2.006,0,0,1-.072-.624V-7.74a3.486,3.486,0,0,1,.018-.414.961.961,0,0,1,.114-.318q.168-.324.936-.324h2.568a3.328,3.328,0,0,1,2.052.768A2.757,2.757,0,0,1,91.848-7.02ZM88.992-4.548a1.163,1.163,0,0,0,.708-.264.931.931,0,0,0,.348-.792.948.948,0,0,0-.348-.8,1.162,1.162,0,0,0-.72-.27h-1.5v2.124Zm5.016-4.26,2.22.012a4.308,4.308,0,0,1,3.06,1.254,4.087,4.087,0,0,1,1.32,3.084,4.31,4.31,0,0,1-1.29,3.138A4.228,4.228,0,0,1,96.192-.012H94q-.732,0-.912-.3a1.594,1.594,0,0,1-.144-.768V-7.752a3.464,3.464,0,0,1,.018-.42.967.967,0,0,1,.114-.312Q93.24-8.808,94.008-8.808Zm2.22,6.672a2.244,2.244,0,0,0,1.56-.642,2.1,2.1,0,0,0,.7-1.614,2.167,2.167,0,0,0-.678-1.626,2.217,2.217,0,0,0-1.59-.654H95.064v4.536Zm9.636-6.036,3.24,6.7a1.566,1.566,0,0,1,.2.612q0,.432-.7.78a1.574,1.574,0,0,1-.642.2.641.641,0,0,1-.384-.108.717.717,0,0,1-.216-.228q-.066-.12-.186-.36l-.624-1.3h-3.324l-.624,1.3q-.12.24-.186.348a.855.855,0,0,1-.216.222.617.617,0,0,1-.384.114,1.574,1.574,0,0,1-.642-.2q-.7-.336-.7-.768a1.566,1.566,0,0,1,.2-.612l3.24-6.708a1.048,1.048,0,0,1,.4-.444,1.062,1.062,0,0,1,.57-.168A1.016,1.016,0,0,1,105.864-8.172Zm-.972,2.88L104.1-3.648h1.6ZM108.3-8.808h6.672a1.327,1.327,0,0,1,.564.09.455.455,0,0,1,.24.282,1.735,1.735,0,0,1,.06.5,1.672,1.672,0,0,1-.06.5.412.412,0,0,1-.2.258,1.4,1.4,0,0,1-.612.108h-2.292v6.036a3.325,3.325,0,0,1-.018.408.974.974,0,0,1-.108.306.509.509,0,0,1-.318.246,2.046,2.046,0,0,1-.6.072,1.984,1.984,0,0,1-.594-.072.507.507,0,0,1-.312-.246.969.969,0,0,1-.108-.312,3.486,3.486,0,0,1-.018-.414V-7.068h-2.3a1.327,1.327,0,0,1-.564-.09.455.455,0,0,1-.24-.282,1.734,1.734,0,0,1-.06-.5,1.672,1.672,0,0,1,.06-.5.412.412,0,0,1,.2-.258A1.4,1.4,0,0,1,108.3-8.808Zm10.32,6.684h3.7a3.486,3.486,0,0,1,.414.018.961.961,0,0,1,.318.114q.324.168.324.936,0,.84-.444.984A2.006,2.006,0,0,1,122.3,0h-4.752q-.84,0-.984-.456a1.887,1.887,0,0,1-.072-.612V-7.74a1.162,1.162,0,0,1,.228-.834,1.254,1.254,0,0,1,.864-.222h4.728a3.486,3.486,0,0,1,.414.018.961.961,0,0,1,.318.114q.324.168.324.936,0,.84-.444.984a2.006,2.006,0,0,1-.624.072H118.62V-5.46H121a3.486,3.486,0,0,1,.414.018.961.961,0,0,1,.318.114q.324.168.324.936,0,.84-.456.984a2.006,2.006,0,0,1-.624.072H118.62Zm5.664.888a1.15,1.15,0,0,1-.312-.69q0-.306.516-.81a.911.911,0,0,1,.636-.288q.336,0,.936.6a1.827,1.827,0,0,0,.48.39,1.141,1.141,0,0,0,.576.186q1.116,0,1.116-.912a.539.539,0,0,0-.306-.462,2.243,2.243,0,0,0-.762-.27,6.559,6.559,0,0,1-.984-.27A6.485,6.485,0,0,1,125.2-4.2a1.988,1.988,0,0,1-.762-.8,2.648,2.648,0,0,1-.306-1.314,2.522,2.522,0,0,1,.786-1.842,2.894,2.894,0,0,1,2.142-.786,4.383,4.383,0,0,1,1.314.186,2.52,2.52,0,0,1,.822.378l.3.228a.937.937,0,0,1,.372.588,1.325,1.325,0,0,1-.288.66q-.408.6-.84.6a1.232,1.232,0,0,1-.624-.24,1.412,1.412,0,0,1-.138-.12,1.831,1.831,0,0,0-.186-.156,1.2,1.2,0,0,0-.642-.156,1.08,1.08,0,0,0-.648.186.6.6,0,0,0-.258.516.618.618,0,0,0,.306.534,1.89,1.89,0,0,0,.762.276,8.984,8.984,0,0,1,1,.222,6.2,6.2,0,0,1,1,.366,1.759,1.759,0,0,1,.762.75,2.607,2.607,0,0,1,.306,1.314,2.912,2.912,0,0,1-.312,1.374,2.374,2.374,0,0,1-.816.918,3.725,3.725,0,0,1-2.076.636A4.028,4.028,0,0,1,126.1-.018a2.893,2.893,0,0,1-.816-.342,2.917,2.917,0,0,1-.888-.744ZM138.312-8.9A4.257,4.257,0,0,1,141.4-7.62,4.285,4.285,0,0,1,142.7-4.434a4.579,4.579,0,0,1-1.248,3.24A4.036,4.036,0,0,1,138.384.144a4.157,4.157,0,0,1-3.1-1.32A4.364,4.364,0,0,1,134-4.32a4.831,4.831,0,0,1,.36-1.866,4.327,4.327,0,0,1,.96-1.458,4.494,4.494,0,0,1,1.38-.924A4.026,4.026,0,0,1,138.312-8.9ZM136.128-4.38a2.3,2.3,0,0,0,.69,1.734,2.17,2.17,0,0,0,1.542.666,2.179,2.179,0,0,0,1.536-.648,2.283,2.283,0,0,0,.684-1.74,2.312,2.312,0,0,0-.69-1.752,2.18,2.18,0,0,0-1.542-.66,2.15,2.15,0,0,0-1.536.666A2.312,2.312,0,0,0,136.128-4.38Zm13.038-4.05a.571.571,0,0,1,.342-.282,1.92,1.92,0,0,1,.57-.072,2.069,2.069,0,0,1,.552.06.875.875,0,0,1,.312.144.49.49,0,0,1,.15.252,1.887,1.887,0,0,1,.072.612v6.66a3.462,3.462,0,0,1-.018.42.968.968,0,0,1-.114.312Q150.864,0,150.1,0a1.977,1.977,0,0,1-.648-.072.7.7,0,0,1-.3-.228q-2.7-3.6-3.552-4.7v3.948a3.466,3.466,0,0,1-.018.42.968.968,0,0,1-.114.312Q145.3,0,144.528,0q-.744,0-.912-.324a.958.958,0,0,1-.114-.324,3.648,3.648,0,0,1-.018-.42v-6.7a1.463,1.463,0,0,1,.114-.666.571.571,0,0,1,.342-.282,2,2,0,0,1,.588-.072,1.968,1.968,0,0,1,.57.066.734.734,0,0,1,.294.15,3.127,3.127,0,0,1,.276.312q2.532,3.444,3.384,4.548V-7.764A1.463,1.463,0,0,1,149.166-8.43ZM160.98-8.8a3.486,3.486,0,0,1,.414.018.906.906,0,0,1,.312.114.533.533,0,0,1,.246.324,2.1,2.1,0,0,1,.072.612,2.1,2.1,0,0,1-.072.612.5.5,0,0,1-.252.318,1.03,1.03,0,0,1-.318.108,3.627,3.627,0,0,1-.426.018h-3.672V-5.46h2.364a3.627,3.627,0,0,1,.426.018.962.962,0,0,1,.318.114q.312.18.312.948,0,.84-.456,1a2.243,2.243,0,0,1-.612.06h-2.352v2.268a3.462,3.462,0,0,1-.018.42.968.968,0,0,1-.114.312q-.168.324-.936.324-.84,0-.984-.456a1.887,1.887,0,0,1-.072-.612V-7.74a1.162,1.162,0,0,1,.228-.834,1.254,1.254,0,0,1,.864-.222Zm3.948,6.672h3.7a3.486,3.486,0,0,1,.414.018.961.961,0,0,1,.318.114q.324.168.324.936,0,.84-.444.984a2.006,2.006,0,0,1-.624.072H163.86q-.84,0-.984-.456a1.887,1.887,0,0,1-.072-.612V-7.74a1.162,1.162,0,0,1,.228-.834A1.254,1.254,0,0,1,163.9-8.8h4.728a3.486,3.486,0,0,1,.414.018.961.961,0,0,1,.318.114q.324.168.324.936,0,.84-.444.984a2.006,2.006,0,0,1-.624.072h-3.684V-5.46H167.3a3.486,3.486,0,0,1,.414.018.962.962,0,0,1,.318.114q.324.168.324.936,0,.84-.456.984a2.006,2.006,0,0,1-.624.072h-2.352Zm10.608-6.048,3.24,6.7a1.566,1.566,0,0,1,.2.612q0,.432-.7.78a1.574,1.574,0,0,1-.642.2.641.641,0,0,1-.384-.108.717.717,0,0,1-.216-.228q-.066-.12-.186-.36l-.624-1.3h-3.324l-.624,1.3q-.12.24-.186.348a.854.854,0,0,1-.216.222.617.617,0,0,1-.384.114,1.574,1.574,0,0,1-.642-.2q-.7-.336-.7-.768a1.566,1.566,0,0,1,.2-.612l3.24-6.708a1.048,1.048,0,0,1,.4-.444,1.062,1.062,0,0,1,.57-.168A1.016,1.016,0,0,1,175.536-8.172Zm-.972,2.88-.792,1.644h1.6Zm3.408-3.516h6.672a1.327,1.327,0,0,1,.564.09.455.455,0,0,1,.24.282,1.735,1.735,0,0,1,.06.5,1.672,1.672,0,0,1-.06.5.412.412,0,0,1-.2.258,1.4,1.4,0,0,1-.612.108H182.34v6.036a3.328,3.328,0,0,1-.018.408.974.974,0,0,1-.108.306.509.509,0,0,1-.318.246,2.046,2.046,0,0,1-.6.072,1.984,1.984,0,0,1-.594-.072.507.507,0,0,1-.312-.246.969.969,0,0,1-.108-.312,3.488,3.488,0,0,1-.018-.414V-7.068h-2.3a1.327,1.327,0,0,1-.564-.09.455.455,0,0,1-.24-.282,1.734,1.734,0,0,1-.06-.5,1.671,1.671,0,0,1,.06-.5.412.412,0,0,1,.2-.258A1.4,1.4,0,0,1,177.972-8.808Zm13.944.336a.613.613,0,0,1,.348-.264,1.92,1.92,0,0,1,.57-.072,2,2,0,0,1,.546.06.948.948,0,0,1,.312.144.471.471,0,0,1,.156.252,2.007,2.007,0,0,1,.072.624V-4.1a4.649,4.649,0,0,1-.984,2.88,3.573,3.573,0,0,1-1.236.99,3.69,3.69,0,0,1-1.674.378,3.606,3.606,0,0,1-1.668-.384,3.471,3.471,0,0,1-1.218-1.008,4.621,4.621,0,0,1-.972-2.88V-7.74a3.625,3.625,0,0,1,.018-.426.962.962,0,0,1,.114-.318.526.526,0,0,1,.324-.252,2.1,2.1,0,0,1,.612-.072,2.1,2.1,0,0,1,.612.072.481.481,0,0,1,.312.252,1.651,1.651,0,0,1,.144.756v3.6a2.865,2.865,0,0,0,.36,1.392,1.349,1.349,0,0,0,.54.54,1.7,1.7,0,0,0,.852.2,1.465,1.465,0,0,0,1.308-.648,2.641,2.641,0,0,0,.432-1.5V-7.812A1.319,1.319,0,0,1,191.916-8.472Zm9.7,6.984a1.9,1.9,0,0,1,.18.624q0,.456-.744.768a1.65,1.65,0,0,1-.618.168.617.617,0,0,1-.384-.114.86.86,0,0,1-.222-.234q-.12-.228-.936-2.172l-.372.024H197v1.356a3.484,3.484,0,0,1-.018.414.962.962,0,0,1-.114.318q-.168.324-.936.324-.84,0-.984-.444a2.006,2.006,0,0,1-.072-.624V-7.74a3.484,3.484,0,0,1,.018-.414.962.962,0,0,1,.114-.318q.168-.324.936-.324h2.592a3.328,3.328,0,0,1,2.052.768,2.816,2.816,0,0,1,.792,1.008A3.171,3.171,0,0,1,201.7-5.6a2.981,2.981,0,0,1-.9,2.232Q201.06-2.736,201.612-1.488ZM197-4.548h1.536a1.149,1.149,0,0,0,.7-.264.931.931,0,0,0,.348-.792.948.948,0,0,0-.348-.8,1.162,1.162,0,0,0-.72-.27H197Zm7.572,2.424h3.7a3.486,3.486,0,0,1,.414.018.961.961,0,0,1,.318.114q.324.168.324.936,0,.84-.444.984A2.006,2.006,0,0,1,208.26,0h-4.752q-.84,0-.984-.456a1.887,1.887,0,0,1-.072-.612V-7.74a1.162,1.162,0,0,1,.228-.834,1.254,1.254,0,0,1,.864-.222h4.728a3.486,3.486,0,0,1,.414.018.961.961,0,0,1,.318.114q.324.168.324.936,0,.84-.444.984a2.006,2.006,0,0,1-.624.072h-3.684V-5.46h2.376a3.486,3.486,0,0,1,.414.018.962.962,0,0,1,.318.114q.324.168.324.936,0,.84-.456.984a2.006,2.006,0,0,1-.624.072h-2.352Zm5.664.888a1.15,1.15,0,0,1-.312-.69q0-.306.516-.81a.911.911,0,0,1,.636-.288q.336,0,.936.6a1.827,1.827,0,0,0,.48.39,1.141,1.141,0,0,0,.576.186q1.116,0,1.116-.912a.539.539,0,0,0-.306-.462,2.243,2.243,0,0,0-.762-.27,6.559,6.559,0,0,1-.984-.27,6.484,6.484,0,0,1-.984-.438,1.988,1.988,0,0,1-.762-.8,2.649,2.649,0,0,1-.306-1.314,2.522,2.522,0,0,1,.786-1.842,2.894,2.894,0,0,1,2.142-.786,4.382,4.382,0,0,1,1.314.186,2.519,2.519,0,0,1,.822.378l.3.228a.937.937,0,0,1,.372.588,1.325,1.325,0,0,1-.288.66q-.408.6-.84.6a1.232,1.232,0,0,1-.624-.24,1.412,1.412,0,0,1-.138-.12,1.832,1.832,0,0,0-.186-.156,1.2,1.2,0,0,0-.642-.156,1.08,1.08,0,0,0-.648.186.6.6,0,0,0-.258.516.618.618,0,0,0,.306.534,1.89,1.89,0,0,0,.762.276,8.985,8.985,0,0,1,1,.222,6.2,6.2,0,0,1,1,.366,1.759,1.759,0,0,1,.762.75,2.607,2.607,0,0,1,.306,1.314,2.912,2.912,0,0,1-.312,1.374,2.374,2.374,0,0,1-.816.918A3.725,3.725,0,0,1,213.12.12a4.028,4.028,0,0,1-1.068-.138,2.893,2.893,0,0,1-.816-.342,2.917,2.917,0,0,1-.888-.744Z" transform="translate(-3 286)" fill="#fff"/>
    <g id="Telegram_logo" transform="translate(235.214 250)">
      <circle id="Ellipse_1309" data-name="Ellipse 1309" cx="20" cy="20" r="20" transform="translate(-0.214)" stroke="#fff" stroke-width="2" fill="url(#linear-gradient-3)"/>
      <path id="Path_21377" data-name="Path 21377" d="M81.229,89.463l2.4,6.65s.3.622.622.622,5.106-4.977,5.106-4.977l5.32-10.275L81.315,87.746Z" transform="translate(-68.498 -68.267)" fill="#c8daea"/>
      <path id="Path_21378" data-name="Path 21378" d="M97.794,138.878l-.461,4.9s-.193,1.5,1.308,0,2.939-2.66,2.939-2.66" transform="translate(-81.878 -116.104)" fill="#a9c6d8"/>
      <path id="Path_21379" data-name="Path 21379" d="M54.984,78.349l-4.942-1.61s-.591-.24-.4-.783c.039-.112.118-.207.354-.371,1.1-.763,20.268-7.655,20.268-7.655a1.633,1.633,0,0,1,.861-.061.467.467,0,0,1,.318.347,1.579,1.579,0,0,1,.043.436c0,.127-.017.245-.029.429-.117,1.884-3.611,15.946-3.611,15.946s-.209.823-.958.851a1.372,1.372,0,0,1-1-.387c-1.47-1.264-6.551-4.679-7.673-5.43a.214.214,0,0,1-.092-.152c-.016-.079.07-.177.07-.177s8.847-7.864,9.082-8.689c.018-.064-.051-.1-.143-.067-.588.216-10.774,6.649-11.9,7.359A.542.542,0,0,1,54.984,78.349Z" transform="translate(-42.209 -56.88)" fill="#fff"/>
    </g>
    <g id="Mask_Group_2" data-name="Mask Group 2" transform="translate(10 235)" clip-path="url(#clip-path)">
      <path id="blob" d="M29.861-51.3c12.589,9.3,26.483,17.1,33.85,30,7.367,12.8,8.206,30.7,3.357,46.4A71.162,71.162,0,0,1,38.44,62.8C25.385,71.2,10.092,74.4-5.015,74c-15.013-.5-29.747-4.6-41.124-13.6-11.377-8.9-19.4-22.8-25.178-38.3-5.875-15.5-9.6-32.6-5.222-47,4.29-14.3,16.6-25.9,29.84-35,13.242-9,27.323-15.5,40-13.4S17.272-60.6,29.861-51.3Z" transform="translate(207.462 82.697)" fill="#fff" opacity="0.05"/>
    </g>
  </g>
</svg>
