<svg xmlns="http://www.w3.org/2000/svg" width="24.85" height="24.85" viewBox="0 0 24.85 24.85">
  <path id="volleyball" d="M127.234,44.8c-.208,0-.414,0-.62.009-3.79,2.459-6.085,8.527-5.9,12.711a12.546,12.546,0,0,0,6.259-.73,13.5,13.5,0,0,1,6.6-10.252,12.364,12.364,0,0,0-6.342-1.738Zm-2.912.342a12.44,12.44,0,0,0-9.31,9.837,15.929,15.929,0,0,0,4.511,2.311,17.618,17.618,0,0,1,4.8-12.148Zm10.364,2.145a14.4,14.4,0,0,0-3.4,2.552,27.123,27.123,0,0,1,5.094,4.678,16.022,16.022,0,0,1,3.014,5.288,12.437,12.437,0,0,0-4.706-12.517Zm-4.169,3.448a11.846,11.846,0,0,0-2.357,6.185c3.569,2.352,5.345,6.708,5.075,11.177a12.456,12.456,0,0,0,5.251-5.6c.346-1.9-1.193-5.042-3.014-7.221a26.533,26.533,0,0,0-4.955-4.539Zm-15.67,5.547c-.023.309-.037.628-.037.943a12.352,12.352,0,0,0,2.284,7.165c4.046,1.484,10.826.247,14.21-1.84a9.891,9.891,0,0,0-3.874-4.669,14.283,14.283,0,0,1-12.583-1.6ZM131.7,63.7a21.042,21.042,0,0,1-13.276,2.274,12.384,12.384,0,0,0,13.562,2.718A15.009,15.009,0,0,0,131.7,63.7Z" transform="translate(-114.81 -44.797)" fill="#122d5f"/>
</svg>
