<svg width="328" height="149" viewBox="0 0 328 149" fill="none" xmlns="http://www.w3.org/2000/svg">
    <rect width="328" height="149" rx="8" fill="url(#pkx5jt45na)"/>
    <mask id="mvqbgzm0fc" style="mask-type:alpha" maskUnits="userSpaceOnUse" x="0" y="0" width="328" height="149">
        <rect width="328" height="149" rx="8" fill="url(#3501iak7gb)"/>
    </mask>
    <g mask="url(#mvqbgzm0fc)">
        <path d="M227.915 44.032c.023.312.206.526.58.782.504-.498.863-.74 1.505-1.003-.26-.206-.367-.42-.489-.875-.649.27-1.092.598-1.596 1.096z" fill="url(#m9ev2xc9qd)"/>
        <path d="M16.294 87.7c.046.64.146 1.024.352 1.522.412-.178.634-.363.802-.584-.199-.27-.23-.526-.23-.931-.366.142-.595.12-.924-.007z" fill="url(#5dseackuje)"/>
        <path d="M129.281 29.38c-.13.278-.298.491-.588.747.772.256 1.268.47 1.78.797.374-.192.512-.377.649-.662-.359-.256-1.039-.583-1.841-.881z" fill="url(#aakfnod71f)"/>
        <path d="M200.04 8.421c.734-.057 1.383.029 2.238.292-.267-1.714-.359-2.873-.206-4.182-.817-.49-1.359-.54-2.116-.498-.152.953-.137 2.568.084 4.388z" fill="url(#9p6585vb9g)"/>
        <path d="M235.722 34.8c.152.64.381 1.316.985 1.82.588.008.985.043 1.566.207-.229-.434-.138-.754.26-1.337-.902-.036-1.711-.313-2.811-.69z" fill="url(#2grqkw9njh)"/>
        <path d="M285.863 70.303c-.993-.07-1.558-.191-2.475-.569-.206.413-.305.804-.214 1.224.589.306 1.391.533 2.498.74-.206-.648-.198-1.003.191-1.394z" fill="url(#wqym2i5j0i)"/>
        <path d="M17.662 66.506c.282.27.39.505.32.953.505-.164.803-.377 1.307-.804.038-.356-.054-.534-.352-.825-.443.363-.786.59-1.275.676z" fill="url(#dulgbzkcgj)"/>
        <path d="M243.666 10.719c.283.846.176 1.4-.115 2.197 1.551-.163 3.079-.498 3.705-.846-.061-.697-.282-1.266-.703-2.013-.702.413-1.52.52-2.887.662z" fill="url(#d07mimzk0k)"/>
        <path d="M11.512 8.663c-.106.25-.267.441-.633.59.618.69 1.1 1.053 1.848 1.544.481-.27.672-.52.787-.711-.901-.349-1.367-.747-2.002-1.423z" fill="url(#a943f8tfil)"/>
        <path d="M49.722 26.386c.741.178 1.406.64 2.384 2.12.61-.49.993-1.074 1.245-1.977-.894-1.003-1.513-1.53-2.735-2.07-.061.761-.313 1.18-.894 1.927z" fill="url(#sf0vyhlkqm)"/>
        <path d="M163.351 37.93c-.367-.086-.695-.314-1.184-1.039-.298.242-.489.533-.611.981.443.491.748.754 1.359 1.017.031-.384.145-.597.436-.96z" fill="url(#l69cmry23n)"/>
        <path d="M235.217 88.44c-.122.725-.076 1.18.275 1.948.871-.434 1.467-.534 2.162-.477.168-.675.168-1.152.061-1.891-.832.305-1.482.39-2.498.42z" fill="url(#xzalgjazdo)"/>
        <path d="M1.483 137.705c-.245.106-.352.277-.512.568.687.299 1.321.811 2.001 1.473.138-.228.29-.335.565-.463-.672-.739-1.115-1.095-2.054-1.578z" fill="url(#fr2sbxc88p)"/>
        <path d="M4.301 96.796c.382-.647.512-1.039.329-1.814-1.268-.334-2.002-.611-3.147-1.173-.061.44-.199.732-.375.953 1.337.604 2.078 1.13 3.193 2.034z" fill="url(#va5sez9r8q)"/>
        <path d="M212.721 39.131c-.397.363-.481.797-.436 1.508 1.207.057 1.91.22 2.941.683-.007-.52.168-.868.657-1.5-1.054-.463-1.955-.62-3.162-.69z" fill="url(#8gbt5qiuxr)"/>
        <path d="M83.433 32.069c-.184.462-.07.868.282 1.465 1.062-.405 1.742-.533 2.834-.52-.229-.447-.237-.817-.091-1.542-1.108 0-1.956.206-3.025.597z" fill="url(#qo2etyb8ys)"/>
        <path d="M220.864 18.001c-.245.285-.298.527-.199.91.367.164.657.235.97.186.161-.377.382-.584.795-.904-.596.007-.97-.007-1.566-.192z" fill="url(#c9utub629t)"/>
        <path d="M49.806 108.225c.336.441.535.882.695 1.529 1.139-.868 1.94-1.387 2.957-1.821.03-.718-.16-1.074-.497-1.536-.756.285-1.917.946-3.155 1.828z" fill="url(#ir5xleykou)"/>
        <path d="M267.431 33.726c.611-.69 1.207-1.486 1.275-2.518-.481-.597-.771-1.024-1.077-1.742-.305.597-.756.775-1.764.868.718.917 1.084 1.963 1.566 3.392z" fill="url(#qeekpscdxv)"/>
        <path d="M277.3 14.41c-.176.49-.328.76-.672 1.18.214.164.428.264.687.278.26-.256.504-.633.779-1.167-.412.014-.618-.042-.794-.291z" fill="url(#3c8az638nw)"/>
        <path d="M297.314 140.962c-.336.171-.588.199-1.008.035.03.47.168.769.458 1.295.336.121.535.085.894-.093-.245-.462-.382-.803-.344-1.237z" fill="url(#wtydy9i5gx)"/>
        <path d="M228.044 3.791c-.068.548-.061.996.138 1.423.39.064.649.028.924-.093-.198-.526-.221-.853-.122-1.4-.374.163-.619.206-.94.07z" fill="url(#egt3zzjofy)"/>
        <path d="M296.978 109.719a.62.62 0 0 1 .412.327c.42-.384.634-.676.917-1.117-.199-.256-.374-.356-.504-.412-.184.526-.42.803-.825 1.202z" fill="url(#8kk5dccwlz)"/>
        <path d="M307.619 67.558c.198.612.42.953 1 1.43.512-.647.94-.932 1.505-1.124-.137-.59-.336-.96-.71-1.508-.542.534-1.016.825-1.795 1.202z" fill="url(#d9yz2g57kA)"/>
        <path d="M48.37 72.437c.65-.249.993-.49 1.46-1.088-.757-.42-1.108-.79-1.376-1.309-.626.185-1.016.413-1.573.825.634.448 1 .868 1.49 1.572z" fill="url(#pv7eqirr3B)"/>
        <path d="M58.102 89.876c-.267-.306-.588-.391-1.123-.505-.229 1.088-.817 2.183-1.627 3.392.42.114.657.278.97.62.947-1.231 1.352-1.992 1.78-3.507z" fill="url(#m10eux8elC)"/>
        <path d="M59.622 136.616c.29-.121.413-.32.596-.661-.802-.356-1.543-.953-2.322-1.721-.168.263-.336.391-.657.54.78.861 1.29 1.273 2.383 1.842z" fill="url(#7lv04t5i8D)"/>
        <path d="M174.106 96.775c.199-.363.268-.584.153-1.01a8.138 8.138 0 0 1-1.765-.605 1.01 1.01 0 0 1-.191.534c.749.32 1.169.597 1.803 1.08z" fill="url(#sdqrsf2qbE)"/>
        <path d="M234.14 71.136c.779.163 1.223.17 1.971-.214-.008-1.237.077-1.97.336-3.157-.473.07-.817.02-1.092-.072-.26 1.373-.596 2.19-1.215 3.443z" fill="url(#4njx3alqnF)"/>
        <path d="M201.583 86.96c.23.391.505.569 1.024.647.382-.313.603-.583.687-.939-.381-.355-.534-.69-.725-1.28-.275.647-.466 1.038-.986 1.572z" fill="url(#ajem45aihG)"/>
        <path d="M53.74 82.629c-.496-.079-1.039-.121-1.566.114-.168.362-.298.597-.573.91.375-.029.573.12.886.519.268-.533.688-.967 1.253-1.543z" fill="url(#awgb389qdH)"/>
        <path d="M57.743 47.004c.283-.384.481-.59.894-.867-.145-.185-.306-.328-.527-.392-.29.164-.604.434-.978.84.351.07.52.163.611.42z" fill="url(#k0xiifzewI)"/>
        <path d="M318.886 99.99a2.96 2.96 0 0 1-1.108.284.827.827 0 0 0 .207.519c.305 0 .672-.078 1.153-.228-.229-.206-.313-.348-.252-.576z" fill="url(#1bu0vmncmJ)"/>
        <path d="M106.433 80.16c-.244-.718-.221-1.222.329-1.962-1.054-.128-1.78.021-3.079.377-.405.597-.397 1.003-.145 1.764 1.115-.292 1.94-.427 2.895-.178z" fill="url(#fww6t36s1K)"/>
        <path d="M13.911 52.474c.374.49.481.881.26 1.571.84-.142 1.352-.42 2.253-.974.153-.548.046-.853-.351-1.38-.78.477-1.367.761-2.162.782z" fill="url(#bpfu9j4bfL)"/>
        <path d="M246.913 137.833c.374-.313.679-.384 1.153-.427-.428-.654-.932-1.259-1.245-1.458-.344.178-.588.405-.879.754.359.22.596.554.971 1.131z" fill="url(#xt5nx1kneM)"/>
        <path d="M148.34 65.097c-.275-.263-.443-.554-.435-1.052-1.253.334-2.002.69-3.071 1.28.099.697.321 1.06.512 1.301.962-.846 1.749-1.159 2.994-1.529z" fill="url(#i4fbp389mN)"/>
        <path d="M260.426 69.023c.191-.313.45-.54.955-.668-.673-1.017-1.246-1.586-2.132-2.376-.687.27-.993.57-1.191.804 1.13.619 1.665 1.237 2.368 2.24z" fill="url(#qgxvwfvnfO)"/>
        <path d="M251.931 40.575c.52.242.772.398 1.054.782.161-.156.283-.234.428-.241-.267-.434-.557-.662-1.084-.968a1.15 1.15 0 0 0-.398.427z" fill="url(#625opfh7tP)"/>
        <path d="M60.348 14.929c.726-.285 1.115-.398 1.78-.327-.038-.292-.016-.477.107-.626-.71-.114-1.215-.036-2.017.206-.03.27.023.505.13.747z" fill="url(#si62upvbcQ)"/>
        <path d="M118.755 55.916c-.703.206-1.497.142-3.102-.59-.229.69-.221 1.344.069 2.204 1.276.391 2.07.534 3.369.384-.367-.654-.397-1.116-.336-1.998z" fill="url(#j8aef4x56R)"/>
        <path d="M281.142 136.41c.138.505.054 1.06-.618 2.155.55.192 1.084.213 1.795.05.374-.882.519-1.43.458-2.347-.55.22-.924.228-1.635.142z" fill="url(#v91af2tdwS)"/>
        <path d="M27.967 37.495c.764.221 1.26.235 2.139.015-.344-.875-.367-1.444-.214-2.077-.703-.256-1.215-.313-2.025-.32.214.825.214 1.437.1 2.383z" fill="url(#nvainfwezT)"/>
        <path d="M322.614 58.483c.39-.042.619-.242.985-.576-.817-.704-1.459-1.685-2.085-2.88-.306.256-.558.348-1.008.412.573 1.302 1.023 1.984 2.108 3.044z" fill="url(#3rqvwrxd4U)"/>
        <path d="M1.444 34.97c.581-.177.879-.334 1.207-.86-.527-.81-.779-1.323-1.115-2.197-.283.22-.527.312-.749.355.413.996.535 1.65.657 2.703z" fill="url(#ujk450lf4V)"/>
        <path d="M68.629 67.38c.068.264.252.413.61.584.352-.484.62-.733 1.123-1.039-.252-.135-.374-.306-.542-.675-.512.313-.832.647-1.191 1.13z" fill="url(#v7oaj3zt8W)"/>
        <path d="M139.426 14.908c.259.42.55.597 1.115.675.397-.341.642-.64.718-1.024-.42-.37-.588-.725-.81-1.358-.29.697-.489 1.116-1.023 1.707z" fill="url(#0v3j24nd6X)"/>
        <path d="M234.66 20.576c.397.064.657-.014.985-.292-.023-.39-.099-.675-.305-.903-.451.057-.764-.028-1.276-.22.305.505.481.825.596 1.415z" fill="url(#j6r9kc9ivY)"/>
        <path d="M296.573 86.668c.405.036.748.142 1.192.363.03-.96.099-1.593.32-2.297-.397-.341-.687-.42-1.1-.462-.183.504-.343 1.386-.412 2.396z" fill="url(#nyv9wos0cZ)"/>
        <path d="M14.874 114.149c-.627-.697-.925-1.145-1.268-2.005-.451.149-.81.355-1.07.697.168.597.55 1.273 1.154 2.133.351-.569.634-.81 1.184-.825z" fill="url(#en7wick05aa)"/>
        <path d="M180.217 44.608c.948.412 1.452.732 2.2 1.422.367-.334.619-.683.703-1.124-.451-.512-1.153-1.01-2.154-1.6-.061.704-.214 1.053-.749 1.302z" fill="url(#tnyhoe8ddab)"/>
        <path d="M4.248 73.767c.489-.2 1.062-.213 2.276.206.107-.512.046-.981-.229-1.579-.947-.192-1.528-.234-2.444-.035.313.44.374.768.397 1.408z" fill="url(#bgke8sp06ac)"/>
        <path d="M222.827 10.455c-.489-.22-.817-.277-1.428-.213.137.619.084.996-.084 1.408.443.235.779.327 1.321.406-.061-.57.008-.982.191-1.6z" fill="url(#gsjwhefvuad)"/>
        <path d="M109.955 10.975c.168.412.473.611 1.001.91.664-1.081 1.711-2.048 3.04-3.065-.405-.264-.588-.512-.795-.982-1.482.989-2.215 1.671-3.246 3.137z" fill="url(#3v5b8s4crae)"/>
        <path d="M314.494 22.41c.099.584.473.954 1.214 1.395.871-1.003 1.505-1.508 2.666-2.091-.527-.349-.756-.733-1.062-1.58-1.168.605-1.932 1.281-2.818 2.277z" fill="url(#cmddlyhqkaf)"/>
        <path d="M34.727 38.193c.008.433.16.696.573.98.474-.113.802-.255 1.047-.525-.169-.463-.13-.818-.016-1.409-.55.441-.901.705-1.604.954z" fill="url(#guxier32cag)"/>
        <path d="M239.083 51.371c1.382.612 2.307.854 3.575 1.01.068-.946-.069-1.55-.344-2.09-.787.07-1.36-.157-2.2-.584-.122.81-.405 1.195-1.031 1.664z" fill="url(#x26l2tfsqah)"/>
        <path d="M120.298 83.767c.458.476.749.974 1.016 1.707 1.214-1.145 2.085-1.85 3.216-2.475-.061-.84-.329-1.238-.787-1.736-.84.42-2.116 1.33-3.445 2.504z" fill="url(#o53btj697ai)"/>
        <path d="M81.08 5.712c.053-.342.176-.633.412-.996-.94-.078-1.558-.17-2.238-.391-.359.32-.443.562-.512.91.497.185 1.352.363 2.338.477z" fill="url(#d301hyp6aaj)"/>
        <path d="M93.974 57.416c-.565-.348-1.222-.682-2.009-.654-.42.363-.718.583-1.245.84.474.156.642.44.787 1.095.65-.541 1.42-.861 2.467-1.28z" fill="url(#vndm2vivbak)"/>
        <path d="M203.722 70.517c-.542-.441-1.169-.882-2.001-.953-.497.32-.848.519-1.436.711.473.228.603.548.657 1.259.764-.484 1.619-.711 2.78-1.017z" fill="url(#fkvztxweqal)"/>
        <path d="M143.383 44.088a2.79 2.79 0 0 1 .511-.981c-.183-.128-.359-.206-.572-.206-.207.22-.39.533-.596.974.328-.021.504.014.657.213z" fill="url(#xcao6n9ulam)"/>
        <path d="M29.487 96.547c.336.299.466.555.412 1.067.566-.207.886-.47 1.429-.975.023-.405-.092-.604-.45-.917-.467.434-.841.711-1.391.825z" fill="url(#j7jngljhian)"/>
        <path d="M111.506 26.166c-.825.306-1.452.633-1.903 1.18.191.52.421.811.787 1.06.611-.618 1.047-.882 1.887-1.145-.496-.334-.733-.597-.771-1.095z" fill="url(#2dn9vt8gnao)"/>
        <path d="M37.508 93.418c-.107-.434-.245-.768-.512-1.039-.313.05-.497.143-.672.306.297.349.412.59.496 1.031.23-.227.397-.32.688-.298z" fill="url(#oe9m89elzap)"/>
        <path d="M320.612 122.165c-.45-.171-.641-.392-.878-.754-.435.611-.794 1.273-.848 1.614.306.206.619.306 1.07.398.053-.384.275-.711.656-1.258z" fill="url(#nt7u1a37waq)"/>
        <path d="M325.028 143.942c-.359.213-.733.32-1.299.206.107 1.323.359 2.148.795 3.343.825.057 1.291-.086 1.604-.228-.772-1.152-.955-2.005-1.1-3.321z" fill="url(#nwbwpeozmar)"/>
        <path d="M30.77 107.229c-.198.242-.443.413-.894.47.451.931.871 1.472 1.528 2.233.619-.164.91-.384 1.108-.562-.879-.647-1.26-1.223-1.742-2.141z" fill="url(#w3z9wo2yeas)"/>
        <path d="M268.485 124.604c-.611-.043-.925-.099-1.36-.37-.084.214-.176.335-.313.391.45.32.825.434 1.466.534.13-.178.184-.356.207-.555z" fill="url(#2s0mgzmthat)"/>
        <path d="M275.795 37.446c.688-.178 1.459-.1 2.995.661.244-.668.259-1.301.007-2.148-1.23-.42-1.994-.576-3.262-.47.337.655.352 1.103.26 1.957z" fill="url(#bpf3q9i3sau)"/>
        <path d="M41.74 57.452c-.07.37-.046.605.13.996.45-.22.748-.264 1.1-.235.091-.341.091-.59.038-.96-.42.15-.757.192-1.268.199z" fill="url(#379url2vfav)"/>
        <path d="M162.159 14.673c.665-.52.963-.875 1.1-1.736-1.161-.803-1.795-1.358-2.735-2.346-.244.426-.512.675-.787.839 1.116 1.102 1.65 1.913 2.422 3.243z" fill="url(#4ib4nfc2waw)"/>
    </g>
    <mask id="qbbdwaudjay" style="mask-type:alpha" maskUnits="userSpaceOnUse" x="0" y="0" width="328" height="149">
        <rect width="328" height="149" rx="8" fill="url(#hvfbafrhdax)"/>
    </mask>
    <g mask="url(#qbbdwaudjay)">
        <path d="M0-17.161h15.022L51.588 6.227l111.925 71.575-76.214 85.946-7.979 9.005h-21l15.118-13.65 90.072-81.301 123.22 64.993L327 164.039v8.714h-15.003l-36.585-23.388L163.51 77.802 15.506 122.055 0 126.697v12.185l23.505-8.78 140.005-52.3L15.506 33.537 0 28.906V16.71l23.505 8.78L163.51 77.802l50.75-92.077 1.593-2.886h-16.867l-.173.485-35.303 94.478 147.984 44.253L327 126.697v12.185l-23.501-8.78-139.989-52.3 147.984-44.265L327 28.906V16.71l-23.501 8.78L163.51 77.802.834 57.287 0 57.186V47.39l4.97.924 158.54 29.485 76.194-85.955 7.995-9.005h20.981l-15.118 13.65-90.052 81.313 162.676 20.502.814.103v9.795l-4.967-.924L163.51 77.802 40.27 142.795 0 164.039v8.714h15.022l36.566-23.388 111.925-71.563L0 82.367v-9.142l163.51 4.577 7.861-94.963h-15.739l7.881 94.963L327 73.225v9.142l-163.49-4.565 123.22-65.005L327-8.438v-8.723h-15.003L275.416 6.227 163.51 77.802 4.97 107.275l-4.97.927v-9.795l.834-.103L163.51 77.802l50.75 92.065 1.593 2.886h-16.867l-.173-.473-35.303-94.478L73.438-3.511 58.32-17.16h21l7.976 9.005 76.214 85.958-50.77 92.065-1.593 2.886h16.867l.173-.473 35.323-94.478 90.052 81.301 15.118 13.65h-20.981l-7.995-9.005-76.194-85.946 162.676-20.515.814-.102V47.39l-4.967.924L163.51 77.799 40.27 12.797 0-8.438v-8.723zm111.147 0h16.867l.173.485 35.323 94.478 7.861 94.951h-15.739l7.881-94.951-50.773-92.077-1.593-2.886z" fill="url(#sabgbbzhyaz)" style="mix-blend-mode:screen" opacity=".2"/>
    </g>
    <defs>
        <linearGradient id="pkx5jt45na" x1="164" y1="0" x2="164" y2="149" gradientUnits="userSpaceOnUse">
            <stop stop-color="#FFCE54"/>
            <stop offset="1" stop-color="#EFAB02"/>
        </linearGradient>
        <linearGradient id="3501iak7gb" x1="164" y1="0" x2="164" y2="149" gradientUnits="userSpaceOnUse">
            <stop stop-color="#FFC83E"/>
            <stop offset="1" stop-color="#EFAB02"/>
        </linearGradient>
        <linearGradient id="m9ev2xc9qd" x1="229.396" y1="44.447" x2="228.543" y2="43.215" gradientUnits="userSpaceOnUse">
            <stop stop-color="#FF5C5C"/>
            <stop offset=".301" stop-color="#F44444"/>
            <stop offset=".935" stop-color="#D60707"/>
            <stop offset="1" stop-color="#D30000"/>
        </linearGradient>
        <linearGradient id="5dseackuje" x1="16.24" y1="88.527" x2="17.393" y2="88.161" gradientUnits="userSpaceOnUse">
            <stop stop-color="#FF5C5C"/>
            <stop offset=".301" stop-color="#F44444"/>
            <stop offset=".935" stop-color="#D60707"/>
            <stop offset="1" stop-color="#D30000"/>
        </linearGradient>
        <linearGradient id="aakfnod71f" x1="129.502" y1="30.909" x2="130.169" y2="29.567" gradientUnits="userSpaceOnUse">
            <stop stop-color="#FF5C5C"/>
            <stop offset=".301" stop-color="#F44444"/>
            <stop offset=".935" stop-color="#D60707"/>
            <stop offset="1" stop-color="#D30000"/>
        </linearGradient>
        <linearGradient id="9p6585vb9g" x1="203.098" y1="6.367" x2="199.487" y2="6.375" gradientUnits="userSpaceOnUse">
            <stop stop-color="#FF5C5C"/>
            <stop offset=".301" stop-color="#F44444"/>
            <stop offset=".935" stop-color="#D60707"/>
            <stop offset="1" stop-color="#D30000"/>
        </linearGradient>
        <linearGradient id="2grqkw9njh" x1="237.14" y1="34.999" x2="236.94" y2="36.952" gradientUnits="userSpaceOnUse">
            <stop stop-color="#FF5C5C"/>
            <stop offset=".301" stop-color="#F44444"/>
            <stop offset=".935" stop-color="#D60707"/>
            <stop offset="1" stop-color="#D30000"/>
        </linearGradient>
        <linearGradient id="wqym2i5j0i" x1="284.679" y1="69.973" x2="284.305" y2="71.69" gradientUnits="userSpaceOnUse">
            <stop stop-color="#FF5C5C"/>
            <stop offset=".301" stop-color="#F44444"/>
            <stop offset=".935" stop-color="#D60707"/>
            <stop offset="1" stop-color="#D30000"/>
        </linearGradient>
        <linearGradient id="dulgbzkcgj" x1="18.221" y1="66.161" x2="18.8" y2="67.329" gradientUnits="userSpaceOnUse">
            <stop stop-color="#FF5C5C"/>
            <stop offset=".301" stop-color="#F44444"/>
            <stop offset=".935" stop-color="#D60707"/>
            <stop offset="1" stop-color="#D30000"/>
        </linearGradient>
        <linearGradient id="d07mimzk0k" x1="244.926" y1="10.203" x2="245.475" y2="13.191" gradientUnits="userSpaceOnUse">
            <stop stop-color="#FF5C5C"/>
            <stop offset=".301" stop-color="#F44444"/>
            <stop offset=".935" stop-color="#D60707"/>
            <stop offset="1" stop-color="#D30000"/>
        </linearGradient>
        <linearGradient id="a943f8tfil" x1="12.544" y1="9.306" x2="11.681" y2="10.424" gradientUnits="userSpaceOnUse">
            <stop stop-color="#FF5C5C"/>
            <stop offset=".301" stop-color="#F44444"/>
            <stop offset=".935" stop-color="#D60707"/>
            <stop offset="1" stop-color="#D30000"/>
        </linearGradient>
        <linearGradient id="sf0vyhlkqm" x1="50.34" y1="27.705" x2="52.492" y2="24.828" gradientUnits="userSpaceOnUse">
            <stop stop-color="#FF5C5C"/>
            <stop offset=".301" stop-color="#F44444"/>
            <stop offset=".935" stop-color="#D60707"/>
            <stop offset="1" stop-color="#D30000"/>
        </linearGradient>
        <linearGradient id="l69cmry23n" x1="163.04" y1="37.274" x2="161.983" y2="38.702" gradientUnits="userSpaceOnUse">
            <stop stop-color="#FF5C5C"/>
            <stop offset=".301" stop-color="#F44444"/>
            <stop offset=".935" stop-color="#D60707"/>
            <stop offset="1" stop-color="#D30000"/>
        </linearGradient>
        <linearGradient id="xzalgjazdo" x1="236.361" y1="88.228" x2="236.72" y2="90.496" gradientUnits="userSpaceOnUse">
            <stop stop-color="#FF5C5C"/>
            <stop offset=".301" stop-color="#F44444"/>
            <stop offset=".935" stop-color="#D60707"/>
            <stop offset="1" stop-color="#D30000"/>
        </linearGradient>
        <linearGradient id="fr2sbxc88p" x1="2.766" y1="138.227" x2="1.887" y2="139.151" gradientUnits="userSpaceOnUse">
            <stop stop-color="#FF5C5C"/>
            <stop offset=".301" stop-color="#F44444"/>
            <stop offset=".935" stop-color="#D60707"/>
            <stop offset="1" stop-color="#D30000"/>
        </linearGradient>
        <linearGradient id="va5sez9r8q" x1="3.293" y1="94.332" x2="2.659" y2="96.27" gradientUnits="userSpaceOnUse">
            <stop stop-color="#FF5C5C"/>
            <stop offset=".301" stop-color="#F44444"/>
            <stop offset=".935" stop-color="#D60707"/>
            <stop offset="1" stop-color="#D30000"/>
        </linearGradient>
        <linearGradient id="8gbt5qiuxr" x1="213.739" y1="41.302" x2="214.247" y2="38.948" gradientUnits="userSpaceOnUse">
            <stop stop-color="#4D8EFF"/>
            <stop offset=".428" stop-color="#3F76FF"/>
            <stop offset="1" stop-color="#2850FF"/>
        </linearGradient>
        <linearGradient id="qo2etyb8ys" x1="85.255" y1="33.56" x2="84.803" y2="31.309" gradientUnits="userSpaceOnUse">
            <stop stop-color="#4D8EFF"/>
            <stop offset=".428" stop-color="#3F76FF"/>
            <stop offset="1" stop-color="#2850FF"/>
        </linearGradient>
        <linearGradient id="c9utub629t" x1="221.597" y1="18.01" x2="221.365" y2="19.328" gradientUnits="userSpaceOnUse">
            <stop stop-color="#4D8EFF"/>
            <stop offset=".428" stop-color="#3F76FF"/>
            <stop offset="1" stop-color="#2850FF"/>
        </linearGradient>
        <linearGradient id="ir5xleykou" x1="52.542" y1="109.315" x2="51.222" y2="106.961" gradientUnits="userSpaceOnUse">
            <stop stop-color="#4D8EFF"/>
            <stop offset=".428" stop-color="#3F76FF"/>
            <stop offset="1" stop-color="#2850FF"/>
        </linearGradient>
        <linearGradient id="qeekpscdxv" x1="266.47" y1="32.129" x2="268.818" y2="30.575" gradientUnits="userSpaceOnUse">
            <stop stop-color="#4D8EFF"/>
            <stop offset=".428" stop-color="#3F76FF"/>
            <stop offset="1" stop-color="#2850FF"/>
        </linearGradient>
        <linearGradient id="3c8az638nw" x1="276.944" y1="14.963" x2="277.855" y2="15.468" gradientUnits="userSpaceOnUse">
            <stop stop-color="#4D8EFF"/>
            <stop offset=".428" stop-color="#3F76FF"/>
            <stop offset="1" stop-color="#2850FF"/>
        </linearGradient>
        <linearGradient id="wtydy9i5gx" x1="297.511" y1="141.515" x2="296.257" y2="141.821" gradientUnits="userSpaceOnUse">
            <stop stop-color="#4D8EFF"/>
            <stop offset=".428" stop-color="#3F76FF"/>
            <stop offset="1" stop-color="#2850FF"/>
        </linearGradient>
        <linearGradient id="egt3zzjofy" x1="228.008" y1="4.55" x2="229.07" y2="4.411" gradientUnits="userSpaceOnUse">
            <stop stop-color="#4D8EFF"/>
            <stop offset=".428" stop-color="#3F76FF"/>
            <stop offset="1" stop-color="#2850FF"/>
        </linearGradient>
        <linearGradient id="8kk5dccwlz" x1="297.345" y1="109.102" x2="298.044" y2="109.629" gradientUnits="userSpaceOnUse">
            <stop stop-color="#4D8EFF"/>
            <stop offset=".428" stop-color="#3F76FF"/>
            <stop offset="1" stop-color="#2850FF"/>
        </linearGradient>
        <linearGradient id="d9yz2g57kA" x1="308.427" y1="66.996" x2="309.545" y2="68.699" gradientUnits="userSpaceOnUse">
            <stop stop-color="#4D8EFF"/>
            <stop offset=".428" stop-color="#3F76FF"/>
            <stop offset="1" stop-color="#2850FF"/>
        </linearGradient>
        <linearGradient id="pv7eqirr3B" x1="47.674" y1="71.728" x2="49.224" y2="70.291" gradientUnits="userSpaceOnUse">
            <stop stop-color="#4D8EFF"/>
            <stop offset=".428" stop-color="#3F76FF"/>
            <stop offset="1" stop-color="#2850FF"/>
        </linearGradient>
        <linearGradient id="m10eux8elC" x1="57.746" y1="91.893" x2="56.051" y2="90.781" gradientUnits="userSpaceOnUse">
            <stop stop-color="#4D8EFF"/>
            <stop offset=".428" stop-color="#3F76FF"/>
            <stop offset="1" stop-color="#2850FF"/>
        </linearGradient>
        <linearGradient id="7lv04t5i8D" x1="58.127" y1="136.002" x2="59.155" y2="134.929" gradientUnits="userSpaceOnUse">
            <stop stop-color="#4D8EFF"/>
            <stop offset=".428" stop-color="#3F76FF"/>
            <stop offset="1" stop-color="#2850FF"/>
        </linearGradient>
        <linearGradient id="sdqrsf2qbE" x1="173.503" y1="95.424" x2="173.181" y2="96.508" gradientUnits="userSpaceOnUse">
            <stop stop-color="#4D8EFF"/>
            <stop offset=".428" stop-color="#3F76FF"/>
            <stop offset="1" stop-color="#2850FF"/>
        </linearGradient>
        <linearGradient id="4njx3alqnF" x1="236.408" y1="69.538" x2="234.228" y2="69.408" gradientUnits="userSpaceOnUse">
            <stop stop-color="#4D8EFF"/>
            <stop offset=".428" stop-color="#3F76FF"/>
            <stop offset="1" stop-color="#2850FF"/>
        </linearGradient>
        <linearGradient id="ajem45aihG" x1="201.947" y1="86.189" x2="203.357" y2="87.193" gradientUnits="userSpaceOnUse">
            <stop stop-color="#FC9512"/>
            <stop offset=".007" stop-color="#FC9612"/>
            <stop offset=".68" stop-color="#FED319"/>
            <stop offset="1" stop-color="#FFEB1C"/>
        </linearGradient>
        <linearGradient id="awgb389qdH" x1="53.213" y1="83.455" x2="51.932" y2="82.708" gradientUnits="userSpaceOnUse">
            <stop stop-color="#FC9512"/>
            <stop offset=".007" stop-color="#FC9612"/>
            <stop offset=".68" stop-color="#FED319"/>
            <stop offset="1" stop-color="#FFEB1C"/>
        </linearGradient>
        <linearGradient id="k0xiifzewI" x1="58.193" y1="46.602" x2="57.541" y2="45.952" gradientUnits="userSpaceOnUse">
            <stop stop-color="#FC9512"/>
            <stop offset=".007" stop-color="#FC9612"/>
            <stop offset=".68" stop-color="#FED319"/>
            <stop offset="1" stop-color="#FFEB1C"/>
        </linearGradient>
        <linearGradient id="1bu0vmncmJ" x1="318.344" y1="100.102" x2="318.554" y2="100.866" gradientUnits="userSpaceOnUse">
            <stop stop-color="#FC9512"/>
            <stop offset=".007" stop-color="#FC9612"/>
            <stop offset=".68" stop-color="#FED319"/>
            <stop offset="1" stop-color="#FFEB1C"/>
        </linearGradient>
        <linearGradient id="fww6t36s1K" x1="105.111" y1="80.324" x2="105.029" y2="77.773" gradientUnits="userSpaceOnUse">
            <stop stop-color="#FC9512"/>
            <stop offset=".007" stop-color="#FC9612"/>
            <stop offset=".68" stop-color="#FED319"/>
            <stop offset="1" stop-color="#FFEB1C"/>
        </linearGradient>
        <linearGradient id="bpfu9j4bfL" x1="14.874" y1="52.055" x2="15.518" y2="54.008" gradientUnits="userSpaceOnUse">
            <stop stop-color="#FC9512"/>
            <stop offset=".007" stop-color="#FC9612"/>
            <stop offset=".68" stop-color="#FED319"/>
            <stop offset="1" stop-color="#FFEB1C"/>
        </linearGradient>
        <linearGradient id="xt5nx1kneM" x1="246.367" y1="137.389" x2="247.685" y2="136.369" gradientUnits="userSpaceOnUse">
            <stop stop-color="#FC9512"/>
            <stop offset=".007" stop-color="#FC9612"/>
            <stop offset=".68" stop-color="#FED319"/>
            <stop offset="1" stop-color="#FFEB1C"/>
        </linearGradient>
        <linearGradient id="i4fbp389mN" x1="146.919" y1="65.935" x2="146.128" y2="64.226" gradientUnits="userSpaceOnUse">
            <stop stop-color="#FC9512"/>
            <stop offset=".007" stop-color="#FC9612"/>
            <stop offset=".68" stop-color="#FED319"/>
            <stop offset="1" stop-color="#FFEB1C"/>
        </linearGradient>
        <linearGradient id="qgxvwfvnfO" x1="259.193" y1="67.986" x2="260.561" y2="66.656" gradientUnits="userSpaceOnUse">
            <stop stop-color="#FC9512"/>
            <stop offset=".007" stop-color="#FC9612"/>
            <stop offset=".68" stop-color="#FED319"/>
            <stop offset="1" stop-color="#FFEB1C"/>
        </linearGradient>
        <linearGradient id="625opfh7tP" x1="253.007" y1="40.449" x2="252.415" y2="41.209" gradientUnits="userSpaceOnUse">
            <stop stop-color="#FC9512"/>
            <stop offset=".007" stop-color="#FC9612"/>
            <stop offset=".68" stop-color="#FED319"/>
            <stop offset="1" stop-color="#FFEB1C"/>
        </linearGradient>
        <linearGradient id="si62upvbcQ" x1="61.145" y1="13.787" x2="61.348" y2="15.037" gradientUnits="userSpaceOnUse">
            <stop stop-color="#FC9512"/>
            <stop offset=".007" stop-color="#FC9612"/>
            <stop offset=".68" stop-color="#FED319"/>
            <stop offset="1" stop-color="#FFEB1C"/>
        </linearGradient>
        <linearGradient id="j8aef4x56R" x1="117.53" y1="55.129" x2="117.162" y2="58.478" gradientUnits="userSpaceOnUse">
            <stop stop-color="#FC9512"/>
            <stop offset=".007" stop-color="#FC9612"/>
            <stop offset=".68" stop-color="#FED319"/>
            <stop offset="1" stop-color="#FFEB1C"/>
        </linearGradient>
        <linearGradient id="v91af2tdwS" x1="280.45" y1="137.235" x2="283.129" y2="137.743" gradientUnits="userSpaceOnUse">
            <stop stop-color="#FC9512"/>
            <stop offset=".007" stop-color="#FC9612"/>
            <stop offset=".68" stop-color="#FED319"/>
            <stop offset="1" stop-color="#FFEB1C"/>
        </linearGradient>
        <linearGradient id="nvainfwezT" x1="27.898" y1="36.406" x2="30.386" y2="36.325" gradientUnits="userSpaceOnUse">
            <stop stop-color="#FC9512"/>
            <stop offset=".007" stop-color="#FC9612"/>
            <stop offset=".68" stop-color="#FED319"/>
            <stop offset="1" stop-color="#FFEB1C"/>
        </linearGradient>
        <linearGradient id="3rqvwrxd4U" x1="321.066" y1="57.225" x2="322.742" y2="56.318" gradientUnits="userSpaceOnUse">
            <stop stop-color="#FC9512"/>
            <stop offset=".007" stop-color="#FC9612"/>
            <stop offset=".68" stop-color="#FED319"/>
            <stop offset="1" stop-color="#FFEB1C"/>
        </linearGradient>
        <linearGradient id="ujk450lf4V" x1="2.261" y1="33.091" x2=".826" y2="33.9" gradientUnits="userSpaceOnUse">
            <stop stop-color="#FC9512"/>
            <stop offset=".007" stop-color="#FC9612"/>
            <stop offset=".68" stop-color="#FED319"/>
            <stop offset="1" stop-color="#FFEB1C"/>
        </linearGradient>
        <linearGradient id="v7oaj3zt8W" x1="69.943" y1="67.541" x2="69.045" y2="66.605" gradientUnits="userSpaceOnUse">
            <stop stop-color="#FF3EB9"/>
            <stop offset=".043" stop-color="#FF44BC"/>
            <stop offset=".701" stop-color="#FF98E3"/>
            <stop offset="1" stop-color="#FFB9F2"/>
        </linearGradient>
        <linearGradient id="0v3j24nd6X" x1="139.793" y1="14.07" x2="141.336" y2="15.12" gradientUnits="userSpaceOnUse">
            <stop stop-color="#FF3EB9"/>
            <stop offset=".043" stop-color="#FF44BC"/>
            <stop offset=".701" stop-color="#FF98E3"/>
            <stop offset="1" stop-color="#FFB9F2"/>
        </linearGradient>
        <linearGradient id="j6r9kc9ivY" x1="234.299" y1="19.954" x2="235.685" y2="19.461" gradientUnits="userSpaceOnUse">
            <stop stop-color="#FF3EB9"/>
            <stop offset=".043" stop-color="#FF44BC"/>
            <stop offset=".701" stop-color="#FF98E3"/>
            <stop offset="1" stop-color="#FFB9F2"/>
        </linearGradient>
        <linearGradient id="nyv9wos0cZ" x1="298.451" y1="85.822" x2="296.492" y2="85.454" gradientUnits="userSpaceOnUse">
            <stop stop-color="#FF3EB9"/>
            <stop offset=".043" stop-color="#FF44BC"/>
            <stop offset=".701" stop-color="#FF98E3"/>
            <stop offset="1" stop-color="#FFB9F2"/>
        </linearGradient>
        <linearGradient id="en7wick05aa" x1="14.316" y1="113.149" x2="12.799" y2="114.136" gradientUnits="userSpaceOnUse">
            <stop stop-color="#FF3EB9"/>
            <stop offset=".043" stop-color="#FF44BC"/>
            <stop offset=".701" stop-color="#FF98E3"/>
            <stop offset="1" stop-color="#FFB9F2"/>
        </linearGradient>
        <linearGradient id="tnyhoe8ddab" x1="181.245" y1="45.345" x2="182.247" y2="43.751" gradientUnits="userSpaceOnUse">
            <stop stop-color="#FF3EB9"/>
            <stop offset=".043" stop-color="#FF44BC"/>
            <stop offset=".701" stop-color="#FF98E3"/>
            <stop offset="1" stop-color="#FFB9F2"/>
        </linearGradient>
        <linearGradient id="bgke8sp06ac" x1="5.196" y1="74.24" x2="5.22" y2="71.812" gradientUnits="userSpaceOnUse">
            <stop stop-color="#FF3EB9"/>
            <stop offset=".043" stop-color="#FF44BC"/>
            <stop offset=".701" stop-color="#FF98E3"/>
            <stop offset="1" stop-color="#FFB9F2"/>
        </linearGradient>
        <linearGradient id="gsjwhefvuad" x1="222.75" y1="11.189" x2="221.085" y2="10.97" gradientUnits="userSpaceOnUse">
            <stop stop-color="#FF3EB9"/>
            <stop offset=".043" stop-color="#FF44BC"/>
            <stop offset=".701" stop-color="#FF98E3"/>
            <stop offset="1" stop-color="#FFB9F2"/>
        </linearGradient>
        <linearGradient id="3v5b8s4crae" x1="111.109" y1="8.945" x2="112.478" y2="10.701" gradientUnits="userSpaceOnUse">
            <stop stop-color="#FF3EB9"/>
            <stop offset=".043" stop-color="#FF44BC"/>
            <stop offset=".701" stop-color="#FF98E3"/>
            <stop offset="1" stop-color="#FFB9F2"/>
        </linearGradient>
        <linearGradient id="cmddlyhqkaf" x1="317.351" y1="22.994" x2="315.56" y2="20.787" gradientUnits="userSpaceOnUse">
            <stop stop-color="#00EE98"/>
            <stop offset=".28" stop-color="#00D685"/>
            <stop offset=".868" stop-color="#095"/>
            <stop offset="1" stop-color="#008A49"/>
        </linearGradient>
        <linearGradient id="guxier32cag" x1="35.407" y1="37.674" x2="36.159" y2="39.122" gradientUnits="userSpaceOnUse">
            <stop stop-color="#00EE98"/>
            <stop offset=".28" stop-color="#00D685"/>
            <stop offset=".868" stop-color="#095"/>
            <stop offset="1" stop-color="#008A49"/>
        </linearGradient>
        <linearGradient id="x26l2tfsqah" x1="240.752" y1="52.355" x2="241.269" y2="49.874" gradientUnits="userSpaceOnUse">
            <stop stop-color="#00EE98"/>
            <stop offset=".28" stop-color="#00D685"/>
            <stop offset=".868" stop-color="#095"/>
            <stop offset="1" stop-color="#008A49"/>
        </linearGradient>
        <linearGradient id="o53btj697ai" x1="123.645" y1="84.725" x2="121.804" y2="82.11" gradientUnits="userSpaceOnUse">
            <stop stop-color="#00EE98"/>
            <stop offset=".28" stop-color="#00D685"/>
            <stop offset=".868" stop-color="#095"/>
            <stop offset="1" stop-color="#008A49"/>
        </linearGradient>
        <linearGradient id="d301hyp6aaj" x1="80.349" y1="4.068" x2="79.985" y2="5.736" gradientUnits="userSpaceOnUse">
            <stop stop-color="#00EE98"/>
            <stop offset=".28" stop-color="#00D685"/>
            <stop offset=".868" stop-color="#095"/>
            <stop offset="1" stop-color="#008A49"/>
        </linearGradient>
        <linearGradient id="vndm2vivbak" x1="92.832" y1="58.166" x2="91.693" y2="56.579" gradientUnits="userSpaceOnUse">
            <stop stop-color="#00EE98"/>
            <stop offset=".28" stop-color="#00D685"/>
            <stop offset=".868" stop-color="#095"/>
            <stop offset="1" stop-color="#008A49"/>
        </linearGradient>
        <linearGradient id="fkvztxweqal" x1="202.411" y1="71.15" x2="201.448" y2="69.343" gradientUnits="userSpaceOnUse">
            <stop stop-color="#00EE98"/>
            <stop offset=".28" stop-color="#00D685"/>
            <stop offset=".868" stop-color="#095"/>
            <stop offset="1" stop-color="#008A49"/>
        </linearGradient>
        <linearGradient id="xcao6n9ulam" x1="143.654" y1="43.627" x2="142.89" y2="43.241" gradientUnits="userSpaceOnUse">
            <stop stop-color="#00EE98"/>
            <stop offset=".28" stop-color="#00D685"/>
            <stop offset=".868" stop-color="#095"/>
            <stop offset="1" stop-color="#008A49"/>
        </linearGradient>
        <linearGradient id="j7jngljhian" x1="30.102" y1="96.132" x2="30.82" y2="97.431" gradientUnits="userSpaceOnUse">
            <stop stop-color="#00EE98"/>
            <stop offset=".28" stop-color="#00D685"/>
            <stop offset=".868" stop-color="#095"/>
            <stop offset="1" stop-color="#008A49"/>
        </linearGradient>
        <linearGradient id="2dn9vt8gnao" x1="110.409" y1="26.668" x2="111.251" y2="27.941" gradientUnits="userSpaceOnUse">
            <stop stop-color="#00EE98"/>
            <stop offset=".28" stop-color="#00D685"/>
            <stop offset=".868" stop-color="#095"/>
            <stop offset="1" stop-color="#008A49"/>
        </linearGradient>
        <linearGradient id="oe9m89elzap" x1="37.311" y1="92.831" x2="36.563" y2="93.233" gradientUnits="userSpaceOnUse">
            <stop stop-color="#00EE98"/>
            <stop offset=".28" stop-color="#00D685"/>
            <stop offset=".868" stop-color="#095"/>
            <stop offset="1" stop-color="#008A49"/>
        </linearGradient>
        <linearGradient id="nt7u1a37waq" x1="320.422" y1="122.793" x2="319.026" y2="121.971" gradientUnits="userSpaceOnUse">
            <stop stop-color="#00EE98"/>
            <stop offset=".28" stop-color="#00D685"/>
            <stop offset=".868" stop-color="#095"/>
            <stop offset="1" stop-color="#008A49"/>
        </linearGradient>
        <linearGradient id="nwbwpeozmar" x1="325.672" y1="145.542" x2="323.584" y2="146.133" gradientUnits="userSpaceOnUse">
            <stop stop-color="#00EE98"/>
            <stop offset=".28" stop-color="#00D685"/>
            <stop offset=".868" stop-color="#095"/>
            <stop offset="1" stop-color="#008A49"/>
        </linearGradient>
        <linearGradient id="w3z9wo2yeas" x1="31.696" y1="108.23" x2="30.375" y2="109.215" gradientUnits="userSpaceOnUse">
            <stop stop-color="#00EE98"/>
            <stop offset=".28" stop-color="#00D685"/>
            <stop offset=".868" stop-color="#095"/>
            <stop offset="1" stop-color="#008A49"/>
        </linearGradient>
        <linearGradient id="2s0mgzmthat" x1="267.49" y1="125.122" x2="267.771" y2="124.172" gradientUnits="userSpaceOnUse">
            <stop stop-color="#00EE98"/>
            <stop offset=".28" stop-color="#00D685"/>
            <stop offset=".868" stop-color="#095"/>
            <stop offset="1" stop-color="#008A49"/>
        </linearGradient>
        <linearGradient id="bpf3q9i3sau" x1="276.962" y1="38.244" x2="277.414" y2="34.996" gradientUnits="userSpaceOnUse">
            <stop stop-color="#00EE98"/>
            <stop offset=".28" stop-color="#00D685"/>
            <stop offset=".868" stop-color="#095"/>
            <stop offset="1" stop-color="#008A49"/>
        </linearGradient>
        <linearGradient id="379url2vfav" x1="42.321" y1="57.351" x2="42.493" y2="58.508" gradientUnits="userSpaceOnUse">
            <stop stop-color="#00EE98"/>
            <stop offset=".28" stop-color="#00D685"/>
            <stop offset=".868" stop-color="#095"/>
            <stop offset="1" stop-color="#008A49"/>
        </linearGradient>
        <linearGradient id="4ib4nfc2waw" x1="162.154" y1="11.78" x2="160.74" y2="13.575" gradientUnits="userSpaceOnUse">
            <stop stop-color="#00EE98"/>
            <stop offset=".28" stop-color="#00D685"/>
            <stop offset=".868" stop-color="#095"/>
            <stop offset="1" stop-color="#008A49"/>
        </linearGradient>
        <linearGradient id="hvfbafrhdax" x1="164" y1="0" x2="164" y2="149" gradientUnits="userSpaceOnUse">
            <stop stop-color="#FFC83E"/>
            <stop offset="1" stop-color="#EFAB02"/>
        </linearGradient>
        <radialGradient id="sabgbbzhyaz" cx="0" cy="0" r="1" gradientUnits="userSpaceOnUse" gradientTransform="matrix(163.502 0 0 94.9561 163.5 77.796)">
            <stop stop-color="#fff"/>
            <stop offset=".865" stop-color="#fff" stop-opacity=".222"/>
            <stop offset="1" stop-color="#fff" stop-opacity=".1"/>
        </radialGradient>
    </defs>
</svg>
